<svg xmlns="http://www.w3.org/2000/svg" width="800" height="300" fill="currentColor" font-size="10" text-anchor="middle"><style>svg{background:white}text{white-space:pre}</style><path stroke="currentColor" stroke-opacity=".1" d="M40 270h740M40 220h740M40 170h740M40 120h740M40 70h740M40 20h740" aria-hidden="true" aria-label="y-grid"/><path fill="none" stroke="currentColor" d="M40 270h-6m6-50h-6m6-50h-6m6-50h-6m6-50h-6m6-50h-6" aria-hidden="true" aria-label="y-axis tick"/><g aria-label="y-axis tick label" font-variant="tabular-nums" text-anchor="end"><text y=".32em" transform="translate(31 270)">0</text><text y=".32em" transform="translate(31 220)">10</text><text y=".32em" transform="translate(31 170)">20</text><text y=".32em" transform="translate(31 120)">30</text><text y=".32em" transform="translate(31 70)">40</text><text y=".32em" transform="translate(31 20)">50</text></g><text y=".71em" aria-label="y-axis label" text-anchor="start" transform="translate(3 3)">↑ 计数</text><path fill="none" stroke="currentColor" d="M50.137 270v6m60.822-6v6m60.821-6v6m60.823-6v6m60.822-6v6m60.822-6v6m60.821-6v6m60.822-6v6m60.822-6v6m60.822-6v6m60.822-6v6m60.822-6v6M780 270v6" aria-hidden="true" aria-label="x-axis tick"/><g aria-label="x-axis tick label" font-variant="tabular-nums"><text y=".71em" transform="translate(50.137 279)">06</text><text y=".71em" transform="translate(110.959 279)">07</text><text y=".71em" transform="translate(171.78 279)">08</text><text y=".71em" transform="translate(232.603 279)">09</text><text y=".71em" transform="translate(293.425 279)">10</text><text y=".71em" transform="translate(354.247 279)">11</text><text y=".71em" transform="translate(415.068 279)">12</text><text y=".71em" transform="translate(475.89 279)">13</text><text y=".71em" transform="translate(536.712 279)">14</text><text y=".71em" transform="translate(597.534 279)">15</text><text y=".71em" transform="translate(658.356 279)">16</text><text y=".71em" transform="translate(719.178 279)">17</text><text y=".71em" transform="translate(780 279)">18</text></g><text aria-label="x-axis label" text-anchor="end" transform="translate(797 297)">日 →</text><path fill="none" stroke="green" stroke-linecap="round" stroke-linejoin="round" stroke-width="1.5" d="m42.314 270 .118-70 .181-25 .246-5 278.502-40h135.251l2.342-15h109.035l2.388-10 2.849-5 2.448-5h78.352l2.497-5h43.338l2.33-5h12.615l2.493-5h45.635l2.555-5 2.373-10 3.298-5h2.201l2.157-5h2.599" aria-label="line"/><path fill="none" stroke="red" stroke-linecap="round" stroke-linejoin="round" stroke-width="1.5" d="m42.314 270 .118-35 .181-5h.246l278.502-60h5.657l2.773-5h63.117l2.73-5h60.974l2.342-20h101.408l4.571-5h3.056l2.388-10 2.849-20 2.448-5 2.545-5h58.033l2.808-5h60.801l2.33-5h12.615l2.493-5h45.635l2.555-10 2.373-10h7.656l2.599-10" aria-label="line"/><g fill="none" stroke="green" stroke-width="1.5" aria-label="dot"><circle cx="42.314" cy="270" r="2"/><circle cx="42.432" cy="200" r="2"/><circle cx="42.613" cy="175" r="2"/><circle cx="42.859" cy="170" r="2"/><circle cx="321.361" cy="130" r="2"/><circle cx="324.631" cy="130" r="2"/><circle cx="327.018" cy="130" r="2"/><circle cx="329.791" cy="130" r="2"/><circle cx="332.053" cy="130" r="2"/><circle cx="334.787" cy="130" r="2"/><circle cx="337.168" cy="130" r="2"/><circle cx="339.707" cy="130" r="2"/><circle cx="342.154" cy="130" r="2"/><circle cx="345.382" cy="130" r="2"/><circle cx="347.607" cy="130" r="2"/><circle cx="349.761" cy="130" r="2"/><circle cx="352.383" cy="130" r="2"/><circle cx="355.03" cy="130" r="2"/><circle cx="357.331" cy="130" r="2"/><circle cx="360.172" cy="130" r="2"/><circle cx="362.367" cy="130" r="2"/><circle cx="365.084" cy="130" r="2"/><circle cx="367.494" cy="130" r="2"/><circle cx="370.057" cy="130" r="2"/><circle cx="372.615" cy="130" r="2"/><circle cx="378.102" cy="130" r="2"/><circle cx="382.654" cy="130" r="2"/><circle cx="385.487" cy="130" r="2"/><circle cx="387.856" cy="130" r="2"/><circle cx="390.664" cy="130" r="2"/><circle cx="392.908" cy="130" r="2"/><circle cx="395.638" cy="130" r="2"/><circle cx="398.003" cy="130" r="2"/><circle cx="400.528" cy="130" r="2"/><circle cx="402.926" cy="130" r="2"/><circle cx="406.22" cy="130" r="2"/><circle cx="408.422" cy="130" r="2"/><circle cx="410.619" cy="130" r="2"/><circle cx="413.182" cy="130" r="2"/><circle cx="415.854" cy="130" r="2"/><circle cx="418.154" cy="130" r="2"/><circle cx="421.002" cy="130" r="2"/><circle cx="423.193" cy="130" r="2"/><circle cx="425.913" cy="130" r="2"/><circle cx="428.342" cy="130" r="2"/><circle cx="430.908" cy="130" r="2"/><circle cx="433.432" cy="130" r="2"/><circle cx="438.839" cy="130" r="2"/><circle cx="443.457" cy="130" r="2"/><circle cx="446.383" cy="130" r="2"/><circle cx="448.752" cy="130" r="2"/><circle cx="451.63" cy="130" r="2"/><circle cx="453.808" cy="130" r="2"/><circle cx="456.612" cy="130" r="2"/><circle cx="458.954" cy="115" r="2"/><circle cx="461.5" cy="115" r="2"/><circle cx="463.835" cy="115" r="2"/><circle cx="467.248" cy="115" r="2"/><circle cx="469.542" cy="115" r="2"/><circle cx="471.572" cy="115" r="2"/><circle cx="474.205" cy="115" r="2"/><circle cx="476.817" cy="115" r="2"/><circle cx="479.035" cy="115" r="2"/><circle cx="481.952" cy="115" r="2"/><circle cx="484.075" cy="115" r="2"/><circle cx="486.832" cy="115" r="2"/><circle cx="489.217" cy="115" r="2"/><circle cx="491.788" cy="115" r="2"/><circle cx="494.29" cy="115" r="2"/><circle cx="499.594" cy="115" r="2"/><circle cx="504.182" cy="115" r="2"/><circle cx="507.176" cy="115" r="2"/><circle cx="509.549" cy="115" r="2"/><circle cx="512.415" cy="115" r="2"/><circle cx="514.637" cy="115" r="2"/><circle cx="517.433" cy="115" r="2"/><circle cx="519.746" cy="115" r="2"/><circle cx="522.297" cy="115" r="2"/><circle cx="524.662" cy="115" r="2"/><circle cx="528.085" cy="115" r="2"/><circle cx="530.393" cy="115" r="2"/><circle cx="532.391" cy="115" r="2"/><circle cx="534.944" cy="115" r="2"/><circle cx="537.627" cy="115" r="2"/><circle cx="539.912" cy="115" r="2"/><circle cx="542.811" cy="115" r="2"/><circle cx="544.89" cy="115" r="2"/><circle cx="547.65" cy="115" r="2"/><circle cx="550.05" cy="115" r="2"/><circle cx="552.606" cy="115" r="2"/><circle cx="555.126" cy="115" r="2"/><circle cx="560.362" cy="115" r="2"/><circle cx="564.933" cy="115" r="2"/><circle cx="567.989" cy="115" r="2"/><circle cx="570.377" cy="105" r="2"/><circle cx="573.226" cy="100" r="2"/><circle cx="575.674" cy="95" r="2"/><circle cx="578.219" cy="95" r="2"/><circle cx="580.567" cy="95" r="2"/><circle cx="591.137" cy="95" r="2"/><circle cx="593.199" cy="95" r="2"/><circle cx="595.766" cy="95" r="2"/><circle cx="598.423" cy="95" r="2"/><circle cx="600.707" cy="95" r="2"/><circle cx="603.517" cy="95" r="2"/><circle cx="605.714" cy="95" r="2"/><circle cx="608.347" cy="95" r="2"/><circle cx="610.775" cy="95" r="2"/><circle cx="613.31" cy="95" r="2"/><circle cx="615.906" cy="95" r="2"/><circle cx="621.107" cy="95" r="2"/><circle cx="625.745" cy="95" r="2"/><circle cx="628.811" cy="95" r="2"/><circle cx="631.22" cy="95" r="2"/><circle cx="634.084" cy="95" r="2"/><circle cx="636.252" cy="95" r="2"/><circle cx="639.06" cy="95" r="2"/><circle cx="641.391" cy="95" r="2"/><circle cx="643.934" cy="95" r="2"/><circle cx="646.305" cy="95" r="2"/><circle cx="649.685" cy="95" r="2"/><circle cx="651.905" cy="95" r="2"/><circle cx="654.026" cy="95" r="2"/><circle cx="656.523" cy="90" r="2"/><circle cx="659.28" cy="90" r="2"/><circle cx="661.526" cy="90" r="2"/><circle cx="664.42" cy="90" r="2"/><circle cx="666.522" cy="90" r="2"/><circle cx="669.289" cy="90" r="2"/><circle cx="671.693" cy="90" r="2"/><circle cx="674.228" cy="90" r="2"/><circle cx="676.774" cy="90" r="2"/><circle cx="682.056" cy="90" r="2"/><circle cx="686.675" cy="90" r="2"/><circle cx="689.666" cy="90" r="2"/><circle cx="692.036" cy="90" r="2"/><circle cx="694.9" cy="90" r="2"/><circle cx="697.069" cy="90" r="2"/><circle cx="699.861" cy="90" r="2"/><circle cx="702.191" cy="85" r="2"/><circle cx="704.737" cy="85" r="2"/><circle cx="707.109" cy="85" r="2"/><circle cx="710.504" cy="85" r="2"/><circle cx="712.765" cy="85" r="2"/><circle cx="714.806" cy="85" r="2"/><circle cx="717.299" cy="80" r="2"/><circle cx="720.051" cy="80" r="2"/><circle cx="722.294" cy="80" r="2"/><circle cx="725.233" cy="80" r="2"/><circle cx="727.356" cy="80" r="2"/><circle cx="730.091" cy="80" r="2"/><circle cx="732.507" cy="80" r="2"/><circle cx="735.046" cy="80" r="2"/><circle cx="737.58" cy="80" r="2"/><circle cx="742.794" cy="80" r="2"/><circle cx="747.279" cy="80" r="2"/><circle cx="750.425" cy="80" r="2"/><circle cx="752.779" cy="80" r="2"/><circle cx="755.587" cy="80" r="2"/><circle cx="757.827" cy="80" r="2"/><circle cx="760.569" cy="80" r="2"/><circle cx="762.934" cy="80" r="2"/><circle cx="765.489" cy="75" r="2"/><circle cx="767.862" cy="65" r="2"/><circle cx="771.16" cy="60" r="2"/><circle cx="773.361" cy="60" r="2"/><circle cx="775.518" cy="55" r="2"/><circle cx="778.117" cy="55" r="2"/></g><path fill="none" stroke="red" stroke-width="1.5" d="m40.274 267.96 4.08 4.08m-4.08 0 4.08-4.08m-3.962-35 4.08 4.08m-4.08 0 4.08-4.08m-3.899-5 4.08 4.08m-4.08 0 4.08-4.08m-3.833 0 4.08 4.08m-4.08 0 4.08-4.08m274.421-60 4.08 4.08m-4.08 0 4.08-4.08m-.81 0 4.08 4.08m-4.08 0 4.08-4.08m-1.693 0 4.08 4.08m-4.08 0 4.08-4.08m-1.308-5 4.08 4.08m-4.08 0 4.08-4.08m-1.817 0 4.08 4.08m-4.08 0 4.08-4.08m-1.346 0 4.08 4.08m-4.08 0 4.08-4.08m-1.699 0 4.08 4.08m-4.08 0 4.08-4.08m-1.541 0 4.08 4.08m-4.08 0 4.08-4.08m-1.633 0 4.08 4.08m-4.08 0 4.08-4.08m-.852 0 4.08 4.08m-4.08 0 4.08-4.08m-1.855 0 4.08 4.08m-4.08 0 4.08-4.08m-1.926 0 4.08 4.08m-4.08 0 4.08-4.08m-1.458 0 4.08 4.08m-4.08 0 4.08-4.08m-1.433 0 4.08 4.08m-4.08 0 4.08-4.08m-1.779 0 4.08 4.08m-4.08 0 4.08-4.08m-1.239 0 4.08 4.08m-4.08 0 4.08-4.08m-1.885 0 4.08 4.08m-4.08 0 4.08-4.08m-1.363 0 4.08 4.08m-4.08 0 4.08-4.08m-1.67 0 4.08 4.08m-4.08 0 4.08-4.08m-1.517 0 4.08 4.08m-4.08 0 4.08-4.08m-1.522 0 4.08 4.08m-4.08 0 4.08-4.08m1.407 0 4.08 4.08m-4.08 0 4.08-4.08m.472 0 4.08 4.08m-4.08 0 4.08-4.08m-1.247 0 4.08 4.08m-4.08 0 4.08-4.08m-1.711 0 4.08 4.08m-4.08 0 4.08-4.08m-1.272 0 4.08 4.08m-4.08 0 4.08-4.08m-1.836 0 4.08 4.08m-4.08 0 4.08-4.08m-1.35-5 4.08 4.08m-4.08 0 4.08-4.08m-1.715 0 4.08 4.08m-4.08 0 4.08-4.08m-1.555 0 4.08 4.08m-4.08 0 4.08-4.08m-1.682 0 4.08 4.08m-4.08 0 4.08-4.08m-.786 0 4.08 4.08m-4.08 0 4.08-4.08m-1.878 0 4.08 4.08m-4.08 0 4.08-4.08m-1.883 0 4.08 4.08m-4.08 0 4.08-4.08m-1.517 0 4.08 4.08m-4.08 0 4.08-4.08m-1.408 0 4.08 4.08m-4.08 0 4.08-4.08m-1.78 0 4.08 4.08m-4.08 0 4.08-4.08m-1.232 0 4.08 4.08m-4.08 0 4.08-4.08m-1.889 0 4.08 4.08m-4.08 0 4.08-4.08m-1.36 0 4.08 4.08m-4.08 0 4.08-4.08m-1.651 0 4.08 4.08m-4.08 0 4.08-4.08m-1.514 0 4.08 4.08m-4.08 0 4.08-4.08m-1.556 0 4.08 4.08m-4.08 0 4.08-4.08m1.328 0 4.08 4.08m-4.08 0 4.08-4.08m.537 0 4.08 4.08m-4.08 0 4.08-4.08m-1.154 0 4.08 4.08m-4.08 0 4.08-4.08m-1.711 0 4.08 4.08m-4.08 0 4.08-4.08m-1.202 0 4.08 4.08m-4.08 0 4.08-4.08m-1.902 0 4.08 4.08m-4.08 0 4.08-4.08m-1.276 0 4.08 4.08m-4.08 0 4.08-4.08m-1.738-20 4.08 4.08m-4.08 0 4.08-4.08m-1.534 0 4.08 4.08m-4.08 0 4.08-4.08m-1.745 0 4.08 4.08m-4.08 0 4.08-4.08m-.667 0 4.08 4.08m-4.08 0 4.08-4.08m-1.786 0 4.08 4.08m-4.08 0 4.08-4.08m-2.05 0 4.08 4.08m-4.08 0 4.08-4.08m-1.447 0 4.08 4.08m-4.08 0 4.08-4.08m-1.468 0 4.08 4.08m-4.08 0 4.08-4.08m-1.862 0 4.08 4.08m-4.08 0 4.08-4.08m-1.163 0 4.08 4.08m-4.08 0 4.08-4.08m-1.957 0 4.08 4.08m-4.08 0 4.08-4.08m-1.323 0 4.08 4.08m-4.08 0 4.08-4.08m-1.695 0 4.08 4.08m-4.08 0 4.08-4.08m-1.509 0 4.08 4.08m-4.08 0 4.08-4.08m-1.578 0 4.08 4.08m-4.08 0 4.08-4.08m1.224 0 4.08 4.08m-4.08 0 4.08-4.08m.508 0 4.08 4.08m-4.08 0 4.08-4.08m-1.086 0 4.08 4.08m-4.08 0 4.08-4.08m-1.707 0 4.08 4.08m-4.08 0 4.08-4.08m-1.214 0 4.08 4.08m-4.08 0 4.08-4.08m-1.858 0 4.08 4.08m-4.08 0 4.08-4.08m-1.284 0 4.08 4.08m-4.08 0 4.08-4.08m-1.767 0 4.08 4.08m-4.08 0 4.08-4.08m-1.529 0 4.08 4.08m-4.08 0 4.08-4.08m-1.715 0 4.08 4.08m-4.08 0 4.08-4.08m-.657 0 4.08 4.08m-4.08 0 4.08-4.08m-1.772 0 4.08 4.08m-4.08 0 4.08-4.08m-2.082 0 4.08 4.08m-4.08 0 4.08-4.08m-1.527 0 4.08 4.08m-4.08 0 4.08-4.08m-1.397 0 4.08 4.08m-4.08 0 4.08-4.08m-1.795 0 4.08 4.08m-4.08 0 4.08-4.08m-1.182 0 4.08 4.08m-4.08 0 4.08-4.08m-2 0 4.08 4.08m-4.08 0 4.08-4.08m-1.32 0 4.08 4.08m-4.08 0 4.08-4.08m-1.68 0 4.08 4.08m-4.08 0 4.08-4.08m-1.524 0 4.08 4.08m-4.08 0 4.08-4.08m-1.56 0 4.08 4.08m-4.08 0 4.08-4.08m1.156 0 4.08 4.08m-4.08 0 4.08-4.08m.491-5 4.08 4.08m-4.08 0 4.08-4.08m-1.024 0 4.08 4.08m-4.08 0 4.08-4.08m-1.692-10 4.08 4.08m-4.08 0 4.08-4.08m-1.231-20 4.08 4.08m-4.08 0 4.08-4.08m-1.632-5 4.08 4.08m-4.08 0 4.08-4.08m-1.535-5 4.08 4.08m-4.08 0 4.08-4.08m-1.732 0 4.08 4.08m-4.08 0 4.08-4.08m6.49 0 4.08 4.08m-4.08 0 4.08-4.08m-2.017 0 4.08 4.08m-4.08 0 4.08-4.08m-1.514 0 4.08 4.08m-4.08 0 4.08-4.08m-1.423 0 4.08 4.08m-4.08 0 4.08-4.08m-1.796 0 4.08 4.08m-4.08 0 4.08-4.08m-1.27 0 4.08 4.08m-4.08 0 4.08-4.08m-1.883 0 4.08 4.08m-4.08 0 4.08-4.08m-1.447 0 4.08 4.08m-4.08 0 4.08-4.08m-1.652 0 4.08 4.08m-4.08 0 4.08-4.08m-1.545 0 4.08 4.08m-4.08 0 4.08-4.08m-1.484 0 4.08 4.08m-4.08 0 4.08-4.08m1.121 0 4.08 4.08m-4.08 0 4.08-4.08m.558 0 4.08 4.08m-4.08 0 4.08-4.08m-1.015 0 4.08 4.08m-4.08 0 4.08-4.08m-1.67 0 4.08 4.08m-4.08 0 4.08-4.08m-1.216 0 4.08 4.08m-4.08 0 4.08-4.08m-1.912 0 4.08 4.08m-4.08 0 4.08-4.08m-1.272-5 4.08 4.08m-4.08 0 4.08-4.08m-1.75 0 4.08 4.08m-4.08 0 4.08-4.08m-1.536 0 4.08 4.08m-4.08 0 4.08-4.08m-1.709 0 4.08 4.08m-4.08 0 4.08-4.08m-.7 0 4.08 4.08m-4.08 0 4.08-4.08m-1.86 0 4.08 4.08m-4.08 0 4.08-4.08m-1.959 0 4.08 4.08m-4.08 0 4.08-4.08m-1.583 0 4.08 4.08m-4.08 0 4.08-4.08m-1.323 0 4.08 4.08m-4.08 0 4.08-4.08m-1.834 0 4.08 4.08m-4.08 0 4.08-4.08m-1.186 0 4.08 4.08m-4.08 0 4.08-4.08m-1.978 0 4.08 4.08m-4.08 0 4.08-4.08m-1.313 0 4.08 4.08m-4.08 0 4.08-4.08m-1.676 0 4.08 4.08m-4.08 0 4.08-4.08m-1.545 0 4.08 4.08m-4.08 0 4.08-4.08m-1.534 0 4.08 4.08m-4.08 0 4.08-4.08m1.202 0 4.08 4.08m-4.08 0 4.08-4.08m.539 0 4.08 4.08m-4.08 0 4.08-4.08m-1.089 0 4.08 4.08m-4.08 0 4.08-4.08m-1.71 0 4.08 4.08m-4.08 0 4.08-4.08m-1.216 0 4.08 4.08m-4.08 0 4.08-4.08m-1.91 0 4.08 4.08m-4.08 0 4.08-4.08m-1.29 0 4.08 4.08m-4.08 0 4.08-4.08m-1.749-5 4.08 4.08m-4.08 0 4.08-4.08m-1.534 0 4.08 4.08m-4.08 0 4.08-4.08m-1.707 0 4.08 4.08m-4.08 0 4.08-4.08m-.686 0 4.08 4.08m-4.08 0 4.08-4.08m-1.819 0 4.08 4.08m-4.08 0 4.08-4.08m-2.039 0 4.08 4.08m-4.08 0 4.08-4.08m-1.586-5 4.08 4.08m-4.08 0 4.08-4.08m-1.33 0 4.08 4.08m-4.08 0 4.08-4.08m-1.836 0 4.08 4.08m-4.08 0 4.08-4.08m-1.141 0 4.08 4.08m-4.08 0 4.08-4.08m-1.957 0 4.08 4.08m-4.08 0 4.08-4.08m-1.346 0 4.08 4.08m-4.08 0 4.08-4.08m-1.663 0 4.08 4.08m-4.08 0 4.08-4.08m-1.541 0 4.08 4.08m-4.08 0 4.08-4.08m-1.546 0 4.08 4.08m-4.08 0 4.08-4.08m1.134 0 4.08 4.08m-4.08 0 4.08-4.08m.405 0 4.08 4.08m-4.08 0 4.08-4.08m-.934 0 4.08 4.08m-4.08 0 4.08-4.08m-1.726 0 4.08 4.08m-4.08 0 4.08-4.08m-1.272 0 4.08 4.08m-4.08 0 4.08-4.08m-1.84 0 4.08 4.08m-4.08 0 4.08-4.08m-1.337 0 4.08 4.08m-4.08 0 4.08-4.08m-1.716 0 4.08 4.08m-4.08 0 4.08-4.08m-1.525-10 4.08 4.08m-4.08 0 4.08-4.08m-1.707-10 4.08 4.08m-4.08 0 4.08-4.08m-.782 0 4.08 4.08m-4.08 0 4.08-4.08m-1.879 0 4.08 4.08m-4.08 0 4.08-4.08m-1.923 0 4.08 4.08m-4.08 0 4.08-4.08m-1.481-10 4.08 4.08m-4.08 0 4.08-4.08" aria-label="dot"/></svg>