<svg xmlns="http://www.w3.org/2000/svg" width="800" height="800" viewBox="0 0 800 800" fill="none">
<style type="text/css">
@keyframes a {
	from {
		transform: translate(75%, 50%) rotate(-.25turn) translate(-25%) scale(.5) translate(-50%, -50%);
	}
	10% {
		transform: translate(75%, 50%) rotate(-.225turn) translate(-25%) scale(.5358867313) translate(-50%, -50%);
	}
	25% {
		transform: translate(75%, 50%) rotate(-.1875turn) translate(-25%) scale(.5946035575) translate(-50%, -50%);
	}
	50% {
		transform: translate(75%, 50%) rotate(-.125turn) translate(-25%) scale(.7071067812) translate(-50%, -50%);
	}
	75% {
		transform: translate(75%, 50%) rotate(-.0625turn) translate(-25%) scale(.8408964153) translate(-50%, -50%);
	}
	90% {
		transform: translate(75%, 50%) rotate(-.025turn) translate(-25%) scale(.9330329915) translate(-50%, -50%);
	}
	to {
		transform: translate(75%, 50%) rotate(0) translate(-25%) scale(1) translate(-50%, -50%);
	}
}
:root {
	background: #aaa;
}
.r {
	transform: translate(50%, 100%) rotate(-.25turn) scale(.5);
}
.l {
	transform: scale(2) rotate(.25turn) translate(-50%, -100%);
}
</style>
<g style="animation: a 3s linear infinite;">
<g id="b">
<rect x="100" width="600" height="400" fill="#E1E3CB"/>
<path d="M700 0H200V200H700V0ZM400 400H100V700H400V400Z" fill="#BEE0BF"/>
<path d="M500 50H350V150H250V250H150V350M150 350H0M150 350V450H250V550H400M400 350H600M750 200V400" stroke="#EFE2B6" stroke-width="100"/>
<path d="M50 400V750H400M50 0V300M450 100V250H650V150H750V0" stroke="#CCE9ED" stroke-width="100"/>
<path d="M0 0V300M400 800H0V400M400 750V700H100V500M0 400H100V500M0 400V300M0 300H100V200M100 200V0H200V100M100 200H200V100M200 100H300V0H400M800 400H700M700 400V300M700 400H600V300M600 0H500V100M500 100V200H600V100H700V0H800V200H700V300M500 100H400V200M400 450V300M300 400H200V300H300V200H400M300 400V500H400V550M300 400H500M400 200V300M700 300H600M400 300H600M400 650V600H200V500H100" stroke="#aaa" stroke-width="4" stroke-linecap="square" vector-effect="non-scaling-stroke"/>
<path id="o" d="M664.542 374C662.652 373.86 655.932 373.86 653.622 373.86C651.312 373.86 644.522 373.86 642.632 374V371.97H644.802C650.962 371.97 651.172 371.13 651.172 368.61V332.14C647.322 333.96 643.822 333.96 642.212 333.96V331.93C649.422 331.93 652.922 329.34 654.602 327.45C656.002 327.45 656.002 327.52 656.002 329.13V368.61C656.002 371.13 656.212 371.97 662.372 371.97H664.542V374ZM768.182 362.31H761.112V368.68C761.112 371.27 761.322 371.97 766.362 371.97H767.762V374C766.152 373.86 760.552 373.86 758.592 373.86C756.632 373.86 751.102 373.86 749.492 374V371.97H750.892C756.002 371.97 756.142 371.27 756.142 368.68V362.31H737.732V360.28L758.802 327.59C759.362 326.75 759.572 326.75 760.132 326.75C761.112 326.75 761.112 327.1 761.112 328.43V360.28H768.182V362.31ZM756.492 360.28V333.89L739.482 360.28H756.492Z" fill="#aaa"/>
<path d="M166.642 162.24L164.822 174H139.272V172.32L153.412 156.5C157.402 152.02 160.832 146.84 160.832 140.89C160.832 134.45 157.192 129.48 151.242 129.48C146.692 129.48 142.912 132.7 141.582 137.46C141.792 137.39 141.932 137.39 142.562 137.39C144.522 137.39 145.852 138.72 145.852 140.68C145.852 142.92 144.032 143.97 142.562 143.97C142.352 143.97 139.272 143.97 139.272 140.4C139.272 134.38 144.032 127.45 152.152 127.45C160.272 127.45 166.642 132.84 166.642 140.89C166.642 147.82 162.722 151.46 152.082 161.26C150.262 162.94 145.992 167.42 144.102 169.03H157.052C159.152 169.03 163.142 169.03 163.632 168.4C164.332 167.28 164.892 163.43 165.102 162.24H166.642ZM267.202 362.03C267.202 369.1 261.042 375.47 252.712 375.47C244.942 375.47 238.712 370.36 238.712 364.13C238.712 361.47 240.532 360.49 242.212 360.49C244.172 360.49 245.642 361.89 245.642 363.92C245.642 366.44 243.612 367.7 241.372 367.35C243.402 371.97 249.142 373.58 252.502 373.58C255.932 373.58 260.692 371.13 260.692 361.96C260.692 355.24 258.032 350.34 252.082 350.34H248.862C247.602 350.34 247.252 350.34 247.252 349.64C247.252 349.01 247.532 348.94 248.722 348.87L250.822 348.66C252.712 348.59 255.092 348.38 257.192 345.3C259.222 342.29 259.432 338.37 259.432 337.04C259.432 330.18 254.882 329.13 252.572 329.13C252.222 329.13 245.642 329.13 242.982 333.89C243.192 333.82 243.332 333.82 243.752 333.82C245.292 333.82 246.972 334.8 246.972 337.04C246.972 339.14 245.292 340.19 243.822 340.19C242.772 340.19 240.602 339.63 240.602 336.83C240.602 331.72 245.782 327.45 252.782 327.45C259.572 327.45 265.312 331.51 265.312 337.04C265.312 342.5 261.392 347.61 255.302 349.36C262.022 350.55 267.202 355.59 267.202 362.03ZM368.182 462.31H361.112V468.68C361.112 471.27 361.322 471.97 366.362 471.97H367.762V474C366.152 473.86 360.552 473.86 358.592 473.86C356.632 473.86 351.102 473.86 349.492 474V471.97H350.892C356.002 471.97 356.142 471.27 356.142 468.68V462.31H337.732V460.28L358.802 427.59C359.362 426.75 359.572 426.75 360.132 426.75C361.112 426.75 361.112 427.1 361.112 428.43V460.28H368.182V462.31ZM356.492 460.28V433.89L339.482 460.28H356.492ZM568.182 162.31H561.112V168.68C561.112 171.27 561.322 171.97 566.362 171.97H567.762V174C566.152 173.86 560.552 173.86 558.592 173.86C556.632 173.86 551.102 173.86 549.492 174V171.97H550.892C556.002 171.97 556.142 171.27 556.142 168.68V162.31H537.732V160.28L558.802 127.59C559.362 126.75 559.572 126.75 560.132 126.75C561.112 126.75 561.112 127.1 561.112 128.43V160.28H568.182V162.31ZM556.492 160.28V133.89L539.482 160.28H556.492ZM166.642 559.93C166.642 568.82 159.712 575.47 151.802 575.47C144.032 575.47 139.272 568.68 139.272 562.73C139.272 560 141.092 559.37 142.352 559.37C144.102 559.37 145.432 560.49 145.432 562.45C145.432 564.83 143.542 565.53 142.352 565.53C142.002 565.53 141.582 565.46 141.232 565.32C142.492 570.43 147.042 573.58 151.662 573.58C154.742 573.58 157.472 571.83 159.012 569.31C160.972 566.16 160.972 562.17 160.972 559.51C160.972 556.85 160.902 553.42 159.712 550.69C159.152 549.5 157.332 546.07 153.622 546.07C150.122 546.07 146.832 547.75 144.872 550.62C144.172 551.46 144.102 551.53 143.752 551.53C142.912 551.53 142.912 551.11 142.912 549.85V529.06C142.912 527.94 142.912 527.52 143.472 527.52C143.472 527.52 143.682 527.52 144.172 527.73C145.502 528.29 148.792 529.69 153.412 529.69C155.232 529.69 158.592 529.48 162.512 527.8C163.142 527.52 163.422 527.52 163.422 527.52C163.842 527.52 163.982 527.87 163.982 528.15C163.982 529.13 158.942 534.94 151.032 534.94C150.262 534.94 147.812 534.87 144.802 533.89V548.38C146.622 546.42 149.702 544.67 153.692 544.67C161.042 544.67 166.642 551.6 166.642 559.93ZM669.092 230.53L658.942 245.09C655.652 249.78 653.972 257.9 653.972 268.33V271.83C653.972 272.74 653.972 275.47 651.032 275.47C648.162 275.47 648.162 272.67 648.162 271.9C648.162 258.74 655.232 247.26 657.122 244.53L664.542 233.89H649.702C648.722 233.89 643.472 233.89 642.912 234.31C642.002 235.08 641.372 239.42 641.162 240.68H639.622L641.792 226.68H643.332C643.612 228.01 643.752 228.92 652.222 228.92H669.092V230.53ZM50.112 360.42L46.612 355.8C43.322 351.46 39.472 346.35 34.432 346.35C28.412 346.35 24.492 352.44 24.492 358.88C24.492 365.88 28.272 372.46 34.572 372.46C41.642 372.46 46.542 366.79 50.112 360.42ZM81.542 358.88C81.542 351.95 77.762 345.37 71.462 345.37C64.392 345.37 59.492 351.04 55.922 357.41L59.422 362.03C62.712 366.37 66.562 371.48 71.602 371.48C77.622 371.48 81.542 365.39 81.542 358.88ZM84.062 358.88C84.062 367.7 78.392 375.61 70.132 375.61C63.622 375.61 58.232 371.13 54.242 365.88L52.562 363.64C48.572 370.08 43.042 375.47 35.692 375.47C27.572 375.47 21.972 367.56 21.972 358.88C21.972 350.13 27.642 342.22 35.902 342.22C42.412 342.22 47.802 346.7 51.792 351.95L53.472 354.19C57.462 347.75 62.992 342.36 70.342 342.36C78.462 342.36 84.062 350.27 84.062 358.88ZM47.3836 474C45.4936 473.86 38.7736 473.86 36.4636 473.86C34.1536 473.86 27.3636 473.86 25.4736 474V471.97H27.6436C33.8036 471.97 34.0136 471.13 34.0136 468.61V432.14C30.1636 433.96 26.6636 433.96 25.0536 433.96V431.93C32.2636 431.93 35.7636 429.34 37.4436 427.45C38.8436 427.45 38.8436 427.52 38.8436 429.13V468.61C38.8436 471.13 39.0536 471.97 45.2136 471.97H47.3836V474ZM84.36 451.6C84.36 455.66 84.22 462.52 81.7 467.77C79.67 471.83 76.17 475.47 70.08 475.47C66.44 475.47 61.61 473.79 58.88 468.47C56.36 463.5 55.87 458.39 55.87 451.6C55.87 444.04 56.57 439.7 58.53 435.29C61.12 429.48 66.09 427.45 70.15 427.45C73.58 427.45 78.62 428.99 81.49 434.8C84.01 440.12 84.36 445.79 84.36 451.6ZM79.04 450.76C79.04 446 79.04 440.47 78.13 436.48C76.8 430.46 72.74 428.85 70.08 428.85C67.07 428.85 63.5 431.02 62.31 435.71C61.19 439.84 61.19 445.02 61.19 450.76C61.19 455.66 61.19 460.98 61.96 465.18C63.29 472.81 67.84 474.07 70.08 474.07C72.53 474.07 76.94 472.74 78.27 465.04C79.04 460.77 79.04 455.45 79.04 450.76ZM275.06 129.17C275.06 129.17 279.19 132.32 281.71 134.63C281.5 135.4 280.8 135.75 279.82 135.75H253.5C259.8 149.82 271.42 162.49 282.55 168.3L282.34 169C280.31 169.14 278.49 170.61 277.65 172.85C267.01 165.43 257.56 152.41 252.17 136.17V179.57C252.17 180.27 250.21 181.46 248.46 181.46H247.55V141.14C241.39 154.37 231.45 166.27 218.5 174.6L217.59 173.69C229.49 164.1 239.08 149.61 244.12 135.75H219.2L218.64 133.72H247.55V117.27L254.69 118.11C254.55 119.09 253.99 119.72 252.17 120V133.72H271.35L275.06 129.17ZM475.06 29.17C475.06 29.17 479.19 32.32 481.71 34.63C481.5 35.4 480.8 35.75 479.82 35.75H453.5C459.8 49.82 471.42 62.49 482.55 68.3L482.34 69C480.31 69.14 478.49 70.61 477.65 72.85C467.01 65.43 457.56 52.41 452.17 36.17V79.57C452.17 80.27 450.21 81.46 448.46 81.46H447.55V41.14C441.39 54.37 431.45 66.27 418.5 74.6L417.59 73.69C429.49 64.1 439.08 49.61 444.12 35.75H419.2L418.64 33.72H447.55V17.27L454.69 18.11C454.55 19.09 453.99 19.72 452.17 20V33.72H471.35L475.06 29.17ZM150.56 220C150.21 220.77 149.58 221.12 147.76 220.98C146.71 223.57 145.38 226.37 143.84 229.24H169.95L172.89 226.23L178.49 231.27C177.86 231.9 176.88 232.11 175.2 232.25C165.4 259.97 149.3 273.9 119.62 281.46L119.06 280.2C145.1 271.24 160.64 258.29 169.74 231.27H142.72C140.9 234.56 138.73 237.85 136.28 241.14C155.67 248.21 153.15 260.04 147.55 256.75C145.73 251.99 140.2 246.18 135.3 242.4C131.31 247.51 126.62 252.27 121.16 256.12L120.32 255.28C131.38 245.2 139.57 229.45 143.28 217.27L150.56 220ZM172.54 352.62V334.07H152.1V352.62H172.54ZM154.69 318.11C154.48 319.09 153.92 319.79 152.1 320.07V332.04H171.84L174.43 329.1L180.24 333.58C179.75 334.14 178.63 334.7 177.23 334.98V358.99C177.16 359.41 174.78 360.46 173.24 360.46H172.54V354.65H152.1V379.57C152.1 380.34 150.14 381.46 148.32 381.46H147.41V354.65H127.04V359.69C127.04 360.18 125.15 361.3 123.19 361.3H122.42V329.66L127.53 332.04H147.41V317.34L154.69 318.11ZM127.04 352.62H147.41V334.07H127.04V352.62ZM269.46 433.02H230.61V451.71H269.46V433.02ZM246.08 417.2L253.92 419.02C253.71 419.93 252.87 420.49 251.33 420.49C249.58 423.5 246.92 427.63 244.26 430.99H268.62L271.49 427.63L278 432.6C277.37 433.3 275.97 434 274.29 434.35V479.15C274.15 479.64 271.91 480.97 270.16 480.97H269.46V475.37H230.61V479.43C230.61 480.06 228.86 481.25 226.69 481.25H225.99V428.54L231.1 430.99H242.3C243.7 426.86 245.24 421.26 246.08 417.2ZM230.61 473.27H269.46V453.74H230.61V473.27ZM336.56 540.79C360.01 551.57 356.86 565.5 350.49 561.23C348.25 554.86 341.18 546.53 335.72 541.35L336.56 540.79ZM342.51 520.07C342.23 520.84 341.39 521.4 339.78 521.33C338.45 524.69 336.91 527.91 335.23 530.92H373.24L376.04 527.84L381.5 532.53C381.01 533.09 380.1 533.51 378.49 533.65C377.79 553.74 376.32 573.69 372.54 577.96C370.44 580.41 367.43 581.6 363.16 581.6C363.16 580.13 362.74 578.8 361.48 578.03C359.94 577.05 355.46 576.07 351.47 575.51L351.61 574.25C356.16 574.67 363.72 575.44 365.68 575.44C367.36 575.44 367.92 575.23 368.83 574.39C371.84 571.66 373.24 551.99 373.94 533.02H334.04C329.49 540.79 324.1 547.37 318.22 552.06L317.31 551.29C324.03 543.52 331.03 530.71 334.95 517.41L342.51 520.07ZM555.6 332.53C555.32 333.37 554.55 334 552.8 334C551.82 359.76 551.54 373.41 518.36 381.6L517.73 380.27C546.78 370.68 547.48 358.22 547.83 330.57L555.6 332.53ZM552.52 361.02C584.3 369.7 584.16 383.56 577.23 381.04C572.4 374.74 560.29 366.27 551.89 361.86L552.52 361.02ZM528.02 319.79L533.48 322.1H566.66L569.11 319.09L574.57 323.36C574.08 323.92 573.31 324.34 571.7 324.55V360.25C571.7 360.53 569.95 361.72 567.71 361.72H567.01V323.92H532.64V361.23C532.64 361.65 531.17 362.7 528.79 362.7H528.02V319.79ZM450.56 221.54C452.1 247.3 458.33 265.5 482.55 276.7L482.41 277.47C479.89 277.75 478.14 278.73 477.37 281.39C458.54 270.96 452.24 254.65 450.07 233.79C448.81 250.73 443.77 268.44 418.85 281.39L417.87 280.2C445.73 262.91 445.52 240.23 445.59 218.81L453.01 219.58C452.87 220.63 452.31 221.33 450.56 221.54ZM50.56 21.54C52.1 47.3 58.33 65.5 82.55 76.7L82.41 77.47C79.89 77.75 78.14 78.73 77.37 81.39C58.54 70.96 52.24 54.65 50.07 33.79C48.81 50.73 43.77 68.44 18.85 81.39L17.87 80.2C45.73 62.91 45.52 40.23 45.59 18.81L53.01 19.58C52.87 20.63 52.31 21.33 50.56 21.54ZM246.92 18.6C246.71 19.58 246.15 20.28 244.33 20.56V79.5C244.33 80.27 242.37 81.46 240.62 81.46H239.64V63.61H218.85L218.22 61.58H239.64V46.39H222.28L221.65 44.29H239.64V31.69H221.02L220.39 29.66H239.64V17.83L246.92 18.6ZM262.88 18.95C262.67 19.93 262.11 20.56 260.36 20.84V29.66H271.35L274.71 25.39C274.71 25.39 278.49 28.4 280.8 30.57C280.59 31.34 279.89 31.69 278.98 31.69H260.36V44.29H270.51L273.73 40.16C273.73 40.16 277.44 43.03 279.68 45.2C279.47 45.97 278.84 46.32 277.86 46.32H260.36V61.16H272.47L275.9 56.75C275.9 56.75 279.82 59.83 282.2 62.14C282.06 62.91 281.36 63.26 280.31 63.26H260.36V79.57C260.36 80.27 258.33 81.46 256.51 81.46H255.6V18.11L262.88 18.95ZM39.43 137.08C39.15 137.78 38.45 138.2 37.19 138.34V179.99C37.12 180.41 35.23 181.53 33.48 181.53H32.57V141.07C28.23 146.53 23.4 151.15 18.36 154.72L17.45 153.81C25.92 145.83 34.95 132.18 40.2 117.41L47.34 120.42C46.99 121.19 46.15 121.75 44.47 121.54C42.16 126.72 39.43 131.55 36.42 135.96L39.43 137.08ZM234.46 758.99L240.83 762.35C240.41 763.05 239.78 763.33 238.17 762.98C234.11 768.09 226.62 774.39 218.57 778.17L217.87 777.26C224.59 772.5 231.24 764.73 234.46 758.99ZM260.29 760.32C282.97 767.11 280.8 780.27 274.78 776.91C272.54 771.38 265.26 764.73 259.59 761.02L260.29 760.32ZM251.47 721.12C244.75 730.5 231.03 741.14 218.01 746.67L217.52 745.69C229.21 739.46 243.42 726.3 247.27 716.99L255.6 718.95C255.32 719.72 254.55 720.14 252.8 720.28C259.1 728.26 270.79 734.98 282.83 739.39L282.69 740.37C280.59 740.79 278.91 742.47 278.42 744.22C267.29 738.97 256.58 730.5 251.47 721.12ZM231.8 741H259.45L262.53 737.08C262.53 737.08 266.17 739.88 268.41 741.91C268.2 742.68 267.57 743.03 266.59 743.03H252.24V752.97H270.16L273.52 748.77C273.52 748.77 277.37 751.71 279.75 753.95C279.61 754.72 278.91 755 277.93 755H252.24V774.6C252.24 778.24 251.26 780.83 244.47 781.46C244.33 780.06 243.84 778.8 242.86 778.1C241.74 777.4 239.85 776.77 236.35 776.42V775.37C236.35 775.37 244.12 775.93 245.73 775.93C247.06 775.93 247.48 775.51 247.48 774.46V755H221.23L220.6 752.97H247.48V743.03H232.29L231.8 741ZM26.2 617.34C42.65 622.52 39.5 632.95 34.39 629.8C33.06 625.95 28.79 620.84 25.43 617.97L26.2 617.34ZM36.42 639.39V669.63C39.92 667.18 44.26 664.03 48.53 660.81L49.23 661.65C46.22 664.73 40.48 671.1 34.04 677.26C33.62 678.03 33.06 678.59 32.57 678.87L29.49 673.13C31.52 672.01 31.8 671.52 31.8 670.26V638.34H19.06L18.43 636.24H33.06L34.95 633.79L38.87 638.27C38.38 638.69 37.68 639.11 36.42 639.39ZM120.53 672.5C125.71 671.52 137.19 668.65 148.32 665.5L148.53 666.48C142.93 669.28 135.3 672.99 125.01 677.05C124.73 677.89 124.1 678.52 123.47 678.8L120.53 672.5ZM140.97 621.4C140.62 622.03 139.78 622.59 138.45 622.38C135.3 627.56 129.56 634.91 124.45 639.88C127.81 639.88 132.64 639.67 137.47 639.46C139.92 636.03 142.02 632.81 143.35 630.29L149.65 634.14C149.3 634.77 148.32 635.26 146.92 634.98C142.3 641.42 133.13 650.87 124.87 657.31C130.33 656.68 138.59 655.63 146.92 654.44L147.06 655.63C142.23 657.17 133.62 659.9 123.82 662.49C123.4 663.12 122.91 663.54 122.42 663.75L119.76 657.38C119.76 657.38 121.23 657.1 121.93 656.68C126.27 653.32 131.52 647.3 135.93 641.49C132.78 642.4 128.58 643.45 124.24 644.5C123.82 645.27 123.19 645.76 122.63 645.97L120.18 639.67C120.18 639.67 121.51 639.32 122 638.97C126.48 634.49 132.15 623.92 134.25 618.18L140.97 621.4ZM224.52 630.71V628.33L229.63 630.71H247.48V617.41L254.69 618.11C254.48 619.09 253.92 619.86 252.1 620.14V630.71H270.37L272.68 627.77L278.63 632.25C278.14 632.74 277.09 633.37 275.62 633.58V664.1C275.62 667.81 274.85 670.26 267.85 670.96C267.64 669.42 267.22 668.16 266.17 667.46C264.91 666.69 263.02 666.06 259.45 665.64V664.52C259.45 664.52 267.43 665.15 269.25 665.15C270.65 665.15 271.07 664.66 271.07 663.54V632.74H252.1V679.64C252.1 680.34 250.14 681.53 248.39 681.53H247.48V632.74H229.14V669.98C229.14 670.54 227.32 671.66 225.29 671.66H224.52V630.71ZM324.8 619.65L330.19 621.96H342.51L345.59 619.02L351.19 624.62C350.63 625.11 349.58 625.25 347.83 625.25C345.03 630.08 339.71 638.76 336.21 643.24C346.22 649.12 350.14 655.42 350.14 661.37C350.14 668.09 347.06 671.59 338.45 671.94C338.45 670.47 338.1 668.93 337.33 668.3C336.63 667.74 334.6 667.39 332.22 667.11V665.92C334.6 665.92 338.66 665.92 340.55 665.92C341.46 665.92 341.95 665.85 342.65 665.57C344.4 664.73 345.38 663.26 345.38 660.25C345.38 654.79 342.09 649.33 334.39 643.45C336.7 638.83 340.27 630.08 342.51 624.06H329.35V679.92C329.35 680.27 327.88 681.53 325.5 681.53H324.8V619.65ZM77.02 718.32C76.81 719.3 76.11 719.93 74.43 720.14V774.46C74.43 778.24 73.59 780.83 66.1 781.53C65.82 780.06 65.33 778.87 64.07 778.1C62.74 777.26 60.5 776.56 56.51 776.14V775.02C56.51 775.02 65.96 775.65 67.78 775.65C69.32 775.65 69.81 775.16 69.81 773.97V717.48L77.02 718.32ZM60.15 724.41C60.01 725.39 59.38 726.02 57.56 726.23V762.91C57.56 763.54 55.67 764.45 53.92 764.45H53.01V723.64L60.15 724.41ZM377.02 718.32C376.81 719.3 376.11 719.93 374.43 720.14V774.46C374.43 778.24 373.59 780.83 366.1 781.53C365.82 780.06 365.33 778.87 364.07 778.1C362.74 777.26 360.5 776.56 356.51 776.14V775.02C356.51 775.02 365.96 775.65 367.78 775.65C369.32 775.65 369.81 775.16 369.81 773.97V717.48L377.02 718.32ZM360.15 724.41C360.01 725.39 359.38 726.02 357.56 726.23V762.91C357.56 763.54 355.67 764.45 353.92 764.45H353.01V723.64L360.15 724.41ZM757.35 154.58C757.35 154.58 761.34 157.59 763.79 159.9C763.58 160.67 762.88 161.02 761.97 161.02H718.71L718.15 158.92H753.92L757.35 154.58ZM773.59 125.81C773.59 125.81 777.65 128.82 780.17 131.13C779.96 131.9 779.19 132.25 778.28 132.25H736.28C735.65 136.52 734.88 140.79 734.25 144.29H769.32L772.12 141.42L777.58 145.9C777.02 146.46 776.11 146.88 774.64 146.95C773.52 162 770.86 175.23 767.08 178.66C764.91 180.62 761.97 181.53 758.33 181.53C758.33 180.13 757.91 178.87 756.72 178.1C755.46 177.19 751.47 176.35 748.04 175.86L748.11 174.6C752.1 175.02 758.89 175.65 760.71 175.65C762.25 175.65 762.95 175.44 763.86 174.67C766.66 172.5 768.9 160.18 769.95 146.39H734.39L732.15 148.77L726.97 144.99C727.67 144.5 728.72 143.94 729.77 143.59C731.24 136.31 733.2 123.5 733.62 117.2L740.55 119.02C740.27 119.79 739.57 120.49 737.89 120.42C737.61 123.01 737.12 126.51 736.56 130.15H770.02L773.59 125.81ZM652.8 123.71H667.08L669.39 120.77L675.34 125.32C674.85 125.95 673.66 126.44 672.19 126.65L670.86 146.04H674.01L677.16 141.91C677.16 141.91 680.66 144.85 682.9 146.95C682.69 147.72 682.06 148.07 681.08 148.07H670.72L668.62 179.64C668.41 180.62 666.45 181.32 665.12 181.25L663.86 181.18L664.56 171.1H629.7L627.53 173.48L622.42 169.77C623.05 169.35 624.1 168.79 625.01 168.44C625.92 163.26 626.97 155.84 627.88 148.07H617.94L617.31 146.04H628.09C629.14 136.94 629.98 127.7 630.26 121.26L635.93 123.64H634.67L648.46 123.71H652.8ZM629.49 169H644.75C645.45 163.33 646.15 155.77 646.78 148.07H632.22C631.31 155.56 630.33 163.12 629.49 169ZM632.43 146.04H646.92C647.55 138.76 648.04 131.48 648.32 125.81H634.46C634.04 131.41 633.27 138.69 632.43 146.04ZM664.7 169L666.1 148.07H651.12C650.49 155.77 649.72 163.33 649.09 169H664.7ZM666.24 146.04L667.64 125.81H652.66C652.38 131.55 651.82 138.76 651.26 146.04H666.24ZM575.41 18.95C575.41 18.95 579.68 22.24 582.34 24.55C582.13 25.32 581.5 25.67 580.45 25.67H550.7V39.53C578.77 47.16 578.42 60.53 571.77 57.73C567.92 52.06 558.19 45.2 550.7 41.07V79.78C550.7 80.2 549.09 81.39 546.85 81.39H546.01V25.67H518.5L517.87 23.64H571.63L575.41 18.95ZM73.94 518.32C73.94 518.32 77.93 521.4 80.52 523.64C80.31 524.41 79.61 524.76 78.63 524.76H46.29L52.52 528.4C52.1 529.03 51.12 529.52 49.65 529.1C44.96 533.02 36.63 538.27 29.07 541.84C38.1 541.63 52.73 540.86 68.06 539.88C64.56 536.31 60.29 532.88 56.72 530.57L57.42 529.8C82.13 538.41 80.52 551.71 74.5 548.49C73.52 546.25 71.7 543.8 69.46 541.35C59.17 542.82 44.47 544.64 27.32 546.18C26.76 547.09 26.13 547.65 25.5 547.86L22.98 541.56C22.98 541.56 24.45 541.35 25.08 541.07C32.43 537.71 42.16 529.38 46.08 524.76H20.11L19.55 522.73H70.37L73.94 518.32ZM69.25 553.74C69.25 553.74 73.38 556.82 75.83 559.13C75.69 559.9 74.92 560.25 74.01 560.25H52.24V575.93H71.98L75.62 571.45C75.62 571.45 79.75 574.53 82.27 576.91C82.06 577.68 81.43 578.03 80.45 578.03H18.71L18.08 575.93H47.55V560.25H25.36L24.8 558.15H47.55V546.67L54.76 547.44C54.62 548.42 53.92 549.05 52.24 549.4V558.15H65.68L69.25 553.74Z" fill="#aaa"/>
</g>
<g class="r"><use href="#b"/>
<g class="r"><use href="#b"/>
<g class="r"><use href="#b"/>
<use href="#b" class="r"/>
</g>
</g>
</g>
<g stroke="#aaa" stroke-width="4">
<rect y="800" width="400" height="400" fill="#EFE2B6" vector-effect="non-scaling-stroke"/>
<rect x="400" y="800" width="400" height="400" fill="#E1E3CB" vector-effect="non-scaling-stroke"/>
<rect x="-800" y="-800" width="800" height="800" fill="#EFE2B6" vector-effect="non-scaling-stroke"/>
<rect x="-800" width="800" height="800" fill="#E1E3CB" vector-effect="non-scaling-stroke"/>
</g>
<g class="l">
<use href="#b"/>
<g class="l"><use href="#o"/>
<use href="#o" class="l"/>
</g>
</g>
</g>
</svg>
