<svg xmlns="http://www.w3.org/2000/svg" viewBox="-50 -50 950 1000">
<g stroke="#aaa" stroke-width="4">
<rect width="800" height="800" fill="#efe2b6"/>
<path d="M100 0H200V200H100V0ZM600 300H700V400H600V300ZM300 200H400V400H200V300H300V200ZM550 500V450H600V500H550ZM400 700V750H500V700H400ZM500 600V650H550V700H600V600H500ZM625 500V525H650V500H625ZM775 600H750V550H775V600ZM725 550H700V500H750V525H725V550ZM662.5 475V487.5H650V475H662.5ZM700 425V412.5H675V425H700ZM675 450V437.5H662.5V425H650V450H675ZM643.75 468.75H637.5V475H643.75V468.75ZM606.25 450H612.5V462.5H606.25V450ZM618.75 462.5H625V475H612.5V468.75H618.75V462.5Z" fill="#e1e3cb"/>
<path d="M300 0H200V100H300V0ZM400 400H300V500H400V550H500V500H450V450H400V400ZM200 500H100V700H450V650H400V600H200V500ZM600 200H500V0H700V100H600V200ZM600 600V650H650V600H675V550H650V575H625V600H600ZM650 700V750H750V575H725V600H700V700H650ZM700 500H725V475H700V462.5H675V475H687.5V487.5H700V500ZM750 475H775V425H687.5V437.5H700V450H750V475ZM650 450V437.5H637.5V450H631.25V462.5H637.5V456.25H643.75V450H650ZM637.5 425V412.5H612.5V456.25H618.75V450H625V425H637.5ZM625 475H618.75V481.25H625V475ZM612.5 481.25H606.25V493.75H625V487.5H612.5V481.25Z" fill="#bee0bf"/>
<path d="M0 0H100V300H0V0ZM700 0H800V200H700V300H400V100H500V200H600V100H700V0ZM0 400H100V700H400V750H550V800H0V400ZM400 400V450H450V500H500V550H450V600H550V450H500V400H400ZM600 750V800H800V525H775V600H750V750H600ZM600 600V550H625V525H700V575H675V550H650V575H625V600H600ZM800 500H775V425H700V412.5H662.5V400H800V500ZM662.5 487.5H675V500H700V487.5H687.5V475H675V462.5H687.5V450H662.5V487.5ZM650 412.5V400H600V468.75H606.25V450H612.5V412.5H650ZM643.75 450H650V462.5H643.75V468.75H625V456.25H631.25V462.5H637.5V456.25H643.75V450ZM600 475H606.25V493.75H625V500H600V475Z" fill="#cce9ed"/>
<rect x="625" y="475" width="25" height="25" fill="#aaa"/>
</g>
<path d="M600 600L558.104 619.442L562.215 573.437L600 600ZM669.614 463.046L625 475L636.954 430.386L669.614 463.046Z"/>
<circle cx="400" cy="400" r="21"/>
<g fill="none" stroke="black" stroke-width="8">
<path id="m" d="M400 400a200 200 0 0 0 200 200a100 100 0 0 0 100-100a50 50 0 0 0-50-50"/>
<g>
<rect x="-400" y="-400" width="800" height="800" vector-effect="non-scaling-stroke"/>
<path d="M-400-400L400 400M400-400L-400 400" stroke-width="4" vector-effect="non-scaling-stroke"/>
<animateMotion dur="4s" repeatCount="indefinite" rotate="auto" keyPoints="0;.5714285714285714;.8571428571428571;1" keyTimes="0;.3333333333333333;.6666666666666666;1"><mpath href="#m"/></animateMotion>
<animateTransform dur="4s" repeatCount="indefinite" attributeName="transform" type="scale" values="1;.9330329915368074;.8705505632961241;.8122523963562356;.757858283255199;.7071067811865476;.6597539553864471;.6155722066724582;.5743491774985174;.5358867312681466;.5;.4665164957684037;.43527528164806206;.40612619817811774;.37892914162759955;.35355339059327373;.32987697769322355;.3077861033362291;.2871745887492587;.2679433656340733;.25;.23325824788420185;.217637640824031;.2030630990890589;.18946457081379978;.17677669529663687;.16493848884661177;.1538930516681145;.1435872943746294;.13397168281703664;.125" keyTimes="0;.03333333333333333;.06666666666666667;.1;.13333333333333333;.16666666666666666;.2;.23333333333333334;.26666666666666666;.3;.3333333333333333;.36666666666666664;.4;.43333333333333335;.4666666666666667;.5;.5333333333333333;.5666666666666667;.6;.6333333333333333;.6666666666666666;.7;.7333333333333333;.7666666666666667;.8;.8333333333333334;.8666666666666667;.9;.9333333333333333;.9666666666666667;1"/>
</g>
</g>
</svg>
