<?xml version="1.0" encoding="utf-8" standalone="no"?>
<!DOCTYPE svg PUBLIC "-//W3C//DTD SVG 1.1//EN"
  "http://www.w3.org/Graphics/SVG/1.1/DTD/svg11.dtd">
<svg xmlns:xlink="http://www.w3.org/1999/xlink" width="460.8pt" height="345.6pt" viewBox="0 0 460.8 345.6" xmlns="http://www.w3.org/2000/svg" version="1.1">
 <metadata>
  <rdf:RDF xmlns:dc="http://purl.org/dc/elements/1.1/" xmlns:cc="http://creativecommons.org/ns#" xmlns:rdf="http://www.w3.org/1999/02/22-rdf-syntax-ns#">
   <cc:Work>
    <dc:type rdf:resource="http://purl.org/dc/dcmitype/StillImage"/>
    <dc:date>2024-11-29T11:23:10.361337</dc:date>
    <dc:format>image/svg+xml</dc:format>
    <dc:creator>
     <cc:Agent>
      <dc:title>Matplotlib v3.9.2, https://matplotlib.org/</dc:title>
     </cc:Agent>
    </dc:creator>
   </cc:Work>
  </rdf:RDF>
 </metadata>
 <defs>
  <style type="text/css">*{stroke-linejoin: round; stroke-linecap: butt}</style>
 </defs>
 <g id="figure_1">
  <g id="patch_1">
   <path d="M 0 345.6 
L 460.8 345.6 
L 460.8 0 
L 0 0 
z
" style="fill: #ffffff"/>
  </g>
  <g id="axes_1">
   <g id="patch_2">
    <path d="M 57.6 307.584 
L 414.72 307.584 
L 414.72 41.472 
L 57.6 41.472 
z
" style="fill: #ffffff"/>
   </g>
   <g id="patch_3">
    <path d="M 73.832727 307.584 
L 76.071724 307.584 
L 76.071724 299.608615 
L 73.832727 299.608615 
z
" clip-path="url(#pdd02ae00a9)" style="fill: #1f77b4"/>
   </g>
   <g id="patch_4">
    <path d="M 76.071724 307.584 
L 78.310721 307.584 
L 78.310721 307.584 
L 76.071724 307.584 
z
" clip-path="url(#pdd02ae00a9)" style="fill: #1f77b4"/>
   </g>
   <g id="patch_5">
    <path d="M 78.310721 307.584 
L 80.549718 307.584 
L 80.549718 307.584 
L 78.310721 307.584 
z
" clip-path="url(#pdd02ae00a9)" style="fill: #1f77b4"/>
   </g>
   <g id="patch_6">
    <path d="M 80.549718 307.584 
L 82.788715 307.584 
L 82.788715 307.288615 
L 80.549718 307.288615 
z
" clip-path="url(#pdd02ae00a9)" style="fill: #1f77b4"/>
   </g>
   <g id="patch_7">
    <path d="M 82.788715 307.584 
L 85.027712 307.584 
L 85.027712 307.288615 
L 82.788715 307.288615 
z
" clip-path="url(#pdd02ae00a9)" style="fill: #1f77b4"/>
   </g>
   <g id="patch_8">
    <path d="M 85.027712 307.584 
L 87.266708 307.584 
L 87.266708 306.993231 
L 85.027712 306.993231 
z
" clip-path="url(#pdd02ae00a9)" style="fill: #1f77b4"/>
   </g>
   <g id="patch_9">
    <path d="M 87.266708 307.584 
L 89.505705 307.584 
L 89.505705 307.584 
L 87.266708 307.584 
z
" clip-path="url(#pdd02ae00a9)" style="fill: #1f77b4"/>
   </g>
   <g id="patch_10">
    <path d="M 89.505705 307.584 
L 91.744702 307.584 
L 91.744702 307.584 
L 89.505705 307.584 
z
" clip-path="url(#pdd02ae00a9)" style="fill: #1f77b4"/>
   </g>
   <g id="patch_11">
    <path d="M 91.744702 307.584 
L 93.983699 307.584 
L 93.983699 306.993231 
L 91.744702 306.993231 
z
" clip-path="url(#pdd02ae00a9)" style="fill: #1f77b4"/>
   </g>
   <g id="patch_12">
    <path d="M 93.983699 307.584 
L 96.222696 307.584 
L 96.222696 306.993231 
L 93.983699 306.993231 
z
" clip-path="url(#pdd02ae00a9)" style="fill: #1f77b4"/>
   </g>
   <g id="patch_13">
    <path d="M 96.222696 307.584 
L 98.461693 307.584 
L 98.461693 307.288615 
L 96.222696 307.288615 
z
" clip-path="url(#pdd02ae00a9)" style="fill: #1f77b4"/>
   </g>
   <g id="patch_14">
    <path d="M 98.461693 307.584 
L 100.70069 307.584 
L 100.70069 307.584 
L 98.461693 307.584 
z
" clip-path="url(#pdd02ae00a9)" style="fill: #1f77b4"/>
   </g>
   <g id="patch_15">
    <path d="M 100.70069 307.584 
L 102.939687 307.584 
L 102.939687 307.288615 
L 100.70069 307.288615 
z
" clip-path="url(#pdd02ae00a9)" style="fill: #1f77b4"/>
   </g>
   <g id="patch_16">
    <path d="M 102.939687 307.584 
L 105.178683 307.584 
L 105.178683 307.288615 
L 102.939687 307.288615 
z
" clip-path="url(#pdd02ae00a9)" style="fill: #1f77b4"/>
   </g>
   <g id="patch_17">
    <path d="M 105.178683 307.584 
L 107.41768 307.584 
L 107.41768 307.288615 
L 105.178683 307.288615 
z
" clip-path="url(#pdd02ae00a9)" style="fill: #1f77b4"/>
   </g>
   <g id="patch_18">
    <path d="M 107.41768 307.584 
L 109.656677 307.584 
L 109.656677 305.811692 
L 107.41768 305.811692 
z
" clip-path="url(#pdd02ae00a9)" style="fill: #1f77b4"/>
   </g>
   <g id="patch_19">
    <path d="M 109.656677 307.584 
L 111.895674 307.584 
L 111.895674 307.288615 
L 109.656677 307.288615 
z
" clip-path="url(#pdd02ae00a9)" style="fill: #1f77b4"/>
   </g>
   <g id="patch_20">
    <path d="M 111.895674 307.584 
L 114.134671 307.584 
L 114.134671 306.993231 
L 111.895674 306.993231 
z
" clip-path="url(#pdd02ae00a9)" style="fill: #1f77b4"/>
   </g>
   <g id="patch_21">
    <path d="M 114.134671 307.584 
L 116.373668 307.584 
L 116.373668 307.584 
L 114.134671 307.584 
z
" clip-path="url(#pdd02ae00a9)" style="fill: #1f77b4"/>
   </g>
   <g id="patch_22">
    <path d="M 116.373668 307.584 
L 118.612665 307.584 
L 118.612665 306.697846 
L 116.373668 306.697846 
z
" clip-path="url(#pdd02ae00a9)" style="fill: #1f77b4"/>
   </g>
   <g id="patch_23">
    <path d="M 118.612665 307.584 
L 120.851661 307.584 
L 120.851661 306.993231 
L 118.612665 306.993231 
z
" clip-path="url(#pdd02ae00a9)" style="fill: #1f77b4"/>
   </g>
   <g id="patch_24">
    <path d="M 120.851661 307.584 
L 123.090658 307.584 
L 123.090658 306.993231 
L 120.851661 306.993231 
z
" clip-path="url(#pdd02ae00a9)" style="fill: #1f77b4"/>
   </g>
   <g id="patch_25">
    <path d="M 123.090658 307.584 
L 125.329655 307.584 
L 125.329655 307.288615 
L 123.090658 307.288615 
z
" clip-path="url(#pdd02ae00a9)" style="fill: #1f77b4"/>
   </g>
   <g id="patch_26">
    <path d="M 125.329655 307.584 
L 127.568652 307.584 
L 127.568652 307.288615 
L 125.329655 307.288615 
z
" clip-path="url(#pdd02ae00a9)" style="fill: #1f77b4"/>
   </g>
   <g id="patch_27">
    <path d="M 127.568652 307.584 
L 129.807649 307.584 
L 129.807649 307.288615 
L 127.568652 307.288615 
z
" clip-path="url(#pdd02ae00a9)" style="fill: #1f77b4"/>
   </g>
   <g id="patch_28">
    <path d="M 129.807649 307.584 
L 132.046646 307.584 
L 132.046646 306.993231 
L 129.807649 306.993231 
z
" clip-path="url(#pdd02ae00a9)" style="fill: #1f77b4"/>
   </g>
   <g id="patch_29">
    <path d="M 132.046646 307.584 
L 134.285643 307.584 
L 134.285643 307.584 
L 132.046646 307.584 
z
" clip-path="url(#pdd02ae00a9)" style="fill: #1f77b4"/>
   </g>
   <g id="patch_30">
    <path d="M 134.285643 307.584 
L 136.524639 307.584 
L 136.524639 307.288615 
L 134.285643 307.288615 
z
" clip-path="url(#pdd02ae00a9)" style="fill: #1f77b4"/>
   </g>
   <g id="patch_31">
    <path d="M 136.524639 307.584 
L 138.763636 307.584 
L 138.763636 306.697846 
L 136.524639 306.697846 
z
" clip-path="url(#pdd02ae00a9)" style="fill: #1f77b4"/>
   </g>
   <g id="patch_32">
    <path d="M 138.763636 307.584 
L 141.002633 307.584 
L 141.002633 307.584 
L 138.763636 307.584 
z
" clip-path="url(#pdd02ae00a9)" style="fill: #1f77b4"/>
   </g>
   <g id="patch_33">
    <path d="M 141.002633 307.584 
L 143.24163 307.584 
L 143.24163 307.288615 
L 141.002633 307.288615 
z
" clip-path="url(#pdd02ae00a9)" style="fill: #1f77b4"/>
   </g>
   <g id="patch_34">
    <path d="M 143.24163 307.584 
L 145.480627 307.584 
L 145.480627 306.993231 
L 143.24163 306.993231 
z
" clip-path="url(#pdd02ae00a9)" style="fill: #1f77b4"/>
   </g>
   <g id="patch_35">
    <path d="M 145.480627 307.584 
L 147.719624 307.584 
L 147.719624 306.993231 
L 145.480627 306.993231 
z
" clip-path="url(#pdd02ae00a9)" style="fill: #1f77b4"/>
   </g>
   <g id="patch_36">
    <path d="M 147.719624 307.584 
L 149.958621 307.584 
L 149.958621 306.993231 
L 147.719624 306.993231 
z
" clip-path="url(#pdd02ae00a9)" style="fill: #1f77b4"/>
   </g>
   <g id="patch_37">
    <path d="M 149.958621 307.584 
L 152.197618 307.584 
L 152.197618 305.220923 
L 149.958621 305.220923 
z
" clip-path="url(#pdd02ae00a9)" style="fill: #1f77b4"/>
   </g>
   <g id="patch_38">
    <path d="M 152.197618 307.584 
L 154.436614 307.584 
L 154.436614 307.288615 
L 152.197618 307.288615 
z
" clip-path="url(#pdd02ae00a9)" style="fill: #1f77b4"/>
   </g>
   <g id="patch_39">
    <path d="M 154.436614 307.584 
L 156.675611 307.584 
L 156.675611 307.584 
L 154.436614 307.584 
z
" clip-path="url(#pdd02ae00a9)" style="fill: #1f77b4"/>
   </g>
   <g id="patch_40">
    <path d="M 156.675611 307.584 
L 158.914608 307.584 
L 158.914608 307.584 
L 156.675611 307.584 
z
" clip-path="url(#pdd02ae00a9)" style="fill: #1f77b4"/>
   </g>
   <g id="patch_41">
    <path d="M 158.914608 307.584 
L 161.153605 307.584 
L 161.153605 306.993231 
L 158.914608 306.993231 
z
" clip-path="url(#pdd02ae00a9)" style="fill: #1f77b4"/>
   </g>
   <g id="patch_42">
    <path d="M 161.153605 307.584 
L 163.392602 307.584 
L 163.392602 306.697846 
L 161.153605 306.697846 
z
" clip-path="url(#pdd02ae00a9)" style="fill: #1f77b4"/>
   </g>
   <g id="patch_43">
    <path d="M 163.392602 307.584 
L 165.631599 307.584 
L 165.631599 305.811692 
L 163.392602 305.811692 
z
" clip-path="url(#pdd02ae00a9)" style="fill: #1f77b4"/>
   </g>
   <g id="patch_44">
    <path d="M 165.631599 307.584 
L 167.870596 307.584 
L 167.870596 306.402462 
L 165.631599 306.402462 
z
" clip-path="url(#pdd02ae00a9)" style="fill: #1f77b4"/>
   </g>
   <g id="patch_45">
    <path d="M 167.870596 307.584 
L 170.109592 307.584 
L 170.109592 306.107077 
L 167.870596 306.107077 
z
" clip-path="url(#pdd02ae00a9)" style="fill: #1f77b4"/>
   </g>
   <g id="patch_46">
    <path d="M 170.109592 307.584 
L 172.348589 307.584 
L 172.348589 306.993231 
L 170.109592 306.993231 
z
" clip-path="url(#pdd02ae00a9)" style="fill: #1f77b4"/>
   </g>
   <g id="patch_47">
    <path d="M 172.348589 307.584 
L 174.587586 307.584 
L 174.587586 307.288615 
L 172.348589 307.288615 
z
" clip-path="url(#pdd02ae00a9)" style="fill: #1f77b4"/>
   </g>
   <g id="patch_48">
    <path d="M 174.587586 307.584 
L 176.826583 307.584 
L 176.826583 306.697846 
L 174.587586 306.697846 
z
" clip-path="url(#pdd02ae00a9)" style="fill: #1f77b4"/>
   </g>
   <g id="patch_49">
    <path d="M 176.826583 307.584 
L 179.06558 307.584 
L 179.06558 305.811692 
L 176.826583 305.811692 
z
" clip-path="url(#pdd02ae00a9)" style="fill: #1f77b4"/>
   </g>
   <g id="patch_50">
    <path d="M 179.06558 307.584 
L 181.304577 307.584 
L 181.304577 306.697846 
L 179.06558 306.697846 
z
" clip-path="url(#pdd02ae00a9)" style="fill: #1f77b4"/>
   </g>
   <g id="patch_51">
    <path d="M 181.304577 307.584 
L 183.543574 307.584 
L 183.543574 305.516308 
L 181.304577 305.516308 
z
" clip-path="url(#pdd02ae00a9)" style="fill: #1f77b4"/>
   </g>
   <g id="patch_52">
    <path d="M 183.543574 307.584 
L 185.782571 307.584 
L 185.782571 304.925538 
L 183.543574 304.925538 
z
" clip-path="url(#pdd02ae00a9)" style="fill: #1f77b4"/>
   </g>
   <g id="patch_53">
    <path d="M 185.782571 307.584 
L 188.021567 307.584 
L 188.021567 304.925538 
L 185.782571 304.925538 
z
" clip-path="url(#pdd02ae00a9)" style="fill: #1f77b4"/>
   </g>
   <g id="patch_54">
    <path d="M 188.021567 307.584 
L 190.260564 307.584 
L 190.260564 306.402462 
L 188.021567 306.402462 
z
" clip-path="url(#pdd02ae00a9)" style="fill: #1f77b4"/>
   </g>
   <g id="patch_55">
    <path d="M 190.260564 307.584 
L 192.499561 307.584 
L 192.499561 305.811692 
L 190.260564 305.811692 
z
" clip-path="url(#pdd02ae00a9)" style="fill: #1f77b4"/>
   </g>
   <g id="patch_56">
    <path d="M 192.499561 307.584 
L 194.738558 307.584 
L 194.738558 300.790154 
L 192.499561 300.790154 
z
" clip-path="url(#pdd02ae00a9)" style="fill: #1f77b4"/>
   </g>
   <g id="patch_57">
    <path d="M 194.738558 307.584 
L 196.977555 307.584 
L 196.977555 304.334769 
L 194.738558 304.334769 
z
" clip-path="url(#pdd02ae00a9)" style="fill: #1f77b4"/>
   </g>
   <g id="patch_58">
    <path d="M 196.977555 307.584 
L 199.216552 307.584 
L 199.216552 302.267077 
L 196.977555 302.267077 
z
" clip-path="url(#pdd02ae00a9)" style="fill: #1f77b4"/>
   </g>
   <g id="patch_59">
    <path d="M 199.216552 307.584 
L 201.455549 307.584 
L 201.455549 301.676308 
L 199.216552 301.676308 
z
" clip-path="url(#pdd02ae00a9)" style="fill: #1f77b4"/>
   </g>
   <g id="patch_60">
    <path d="M 201.455549 307.584 
L 203.694545 307.584 
L 203.694545 302.857846 
L 201.455549 302.857846 
z
" clip-path="url(#pdd02ae00a9)" style="fill: #1f77b4"/>
   </g>
   <g id="patch_61">
    <path d="M 203.694545 307.584 
L 205.933542 307.584 
L 205.933542 301.676308 
L 203.694545 301.676308 
z
" clip-path="url(#pdd02ae00a9)" style="fill: #1f77b4"/>
   </g>
   <g id="patch_62">
    <path d="M 205.933542 307.584 
L 208.172539 307.584 
L 208.172539 294.882462 
L 205.933542 294.882462 
z
" clip-path="url(#pdd02ae00a9)" style="fill: #1f77b4"/>
   </g>
   <g id="patch_63">
    <path d="M 208.172539 307.584 
L 210.411536 307.584 
L 210.411536 292.519385 
L 208.172539 292.519385 
z
" clip-path="url(#pdd02ae00a9)" style="fill: #1f77b4"/>
   </g>
   <g id="patch_64">
    <path d="M 210.411536 307.584 
L 212.650533 307.584 
L 212.650533 298.131692 
L 210.411536 298.131692 
z
" clip-path="url(#pdd02ae00a9)" style="fill: #1f77b4"/>
   </g>
   <g id="patch_65">
    <path d="M 212.650533 307.584 
L 214.88953 307.584 
L 214.88953 245.553231 
L 212.650533 245.553231 
z
" clip-path="url(#pdd02ae00a9)" style="fill: #1f77b4"/>
   </g>
   <g id="patch_66">
    <path d="M 214.88953 307.584 
L 217.128527 307.584 
L 217.128527 278.045538 
L 214.88953 278.045538 
z
" clip-path="url(#pdd02ae00a9)" style="fill: #1f77b4"/>
   </g>
   <g id="patch_67">
    <path d="M 217.128527 307.584 
L 219.367524 307.584 
L 219.367524 276.273231 
L 217.128527 276.273231 
z
" clip-path="url(#pdd02ae00a9)" style="fill: #1f77b4"/>
   </g>
   <g id="patch_68">
    <path d="M 219.367524 307.584 
L 221.60652 307.584 
L 221.60652 279.227077 
L 219.367524 279.227077 
z
" clip-path="url(#pdd02ae00a9)" style="fill: #1f77b4"/>
   </g>
   <g id="patch_69">
    <path d="M 221.60652 307.584 
L 223.845517 307.584 
L 223.845517 260.322462 
L 221.60652 260.322462 
z
" clip-path="url(#pdd02ae00a9)" style="fill: #1f77b4"/>
   </g>
   <g id="patch_70">
    <path d="M 223.845517 307.584 
L 226.084514 307.584 
L 226.084514 269.774769 
L 223.845517 269.774769 
z
" clip-path="url(#pdd02ae00a9)" style="fill: #1f77b4"/>
   </g>
   <g id="patch_71">
    <path d="M 226.084514 307.584 
L 228.323511 307.584 
L 228.323511 241.417846 
L 226.084514 241.417846 
z
" clip-path="url(#pdd02ae00a9)" style="fill: #1f77b4"/>
   </g>
   <g id="patch_72">
    <path d="M 228.323511 307.584 
L 230.562508 307.584 
L 230.562508 54.144 
L 228.323511 54.144 
z
" clip-path="url(#pdd02ae00a9)" style="fill: #1f77b4"/>
   </g>
   <g id="patch_73">
    <path d="M 230.562508 307.584 
L 232.801505 307.584 
L 232.801505 268.888615 
L 230.562508 268.888615 
z
" clip-path="url(#pdd02ae00a9)" style="fill: #1f77b4"/>
   </g>
   <g id="patch_74">
    <path d="M 232.801505 307.584 
L 235.040502 307.584 
L 235.040502 196.224 
L 232.801505 196.224 
z
" clip-path="url(#pdd02ae00a9)" style="fill: #1f77b4"/>
   </g>
   <g id="patch_75">
    <path d="M 235.040502 307.584 
L 237.279498 307.584 
L 237.279498 265.934769 
L 235.040502 265.934769 
z
" clip-path="url(#pdd02ae00a9)" style="fill: #1f77b4"/>
   </g>
   <g id="patch_76">
    <path d="M 237.279498 307.584 
L 239.518495 307.584 
L 239.518495 272.433231 
L 237.279498 272.433231 
z
" clip-path="url(#pdd02ae00a9)" style="fill: #1f77b4"/>
   </g>
   <g id="patch_77">
    <path d="M 239.518495 307.584 
L 241.757492 307.584 
L 241.757492 270.956308 
L 239.518495 270.956308 
z
" clip-path="url(#pdd02ae00a9)" style="fill: #1f77b4"/>
   </g>
   <g id="patch_78">
    <path d="M 241.757492 307.584 
L 243.996489 307.584 
L 243.996489 277.454769 
L 241.757492 277.454769 
z
" clip-path="url(#pdd02ae00a9)" style="fill: #1f77b4"/>
   </g>
   <g id="patch_79">
    <path d="M 243.996489 307.584 
L 246.235486 307.584 
L 246.235486 294.587077 
L 243.996489 294.587077 
z
" clip-path="url(#pdd02ae00a9)" style="fill: #1f77b4"/>
   </g>
   <g id="patch_80">
    <path d="M 246.235486 307.584 
L 248.474483 307.584 
L 248.474483 298.131692 
L 246.235486 298.131692 
z
" clip-path="url(#pdd02ae00a9)" style="fill: #1f77b4"/>
   </g>
   <g id="patch_81">
    <path d="M 248.474483 307.584 
L 250.71348 307.584 
L 250.71348 299.904 
L 248.474483 299.904 
z
" clip-path="url(#pdd02ae00a9)" style="fill: #1f77b4"/>
   </g>
   <g id="patch_82">
    <path d="M 250.71348 307.584 
L 252.952476 307.584 
L 252.952476 303.744 
L 250.71348 303.744 
z
" clip-path="url(#pdd02ae00a9)" style="fill: #1f77b4"/>
   </g>
   <g id="patch_83">
    <path d="M 252.952476 307.584 
L 255.191473 307.584 
L 255.191473 297.245538 
L 252.952476 297.245538 
z
" clip-path="url(#pdd02ae00a9)" style="fill: #1f77b4"/>
   </g>
   <g id="patch_84">
    <path d="M 255.191473 307.584 
L 257.43047 307.584 
L 257.43047 306.697846 
L 255.191473 306.697846 
z
" clip-path="url(#pdd02ae00a9)" style="fill: #1f77b4"/>
   </g>
   <g id="patch_85">
    <path d="M 257.43047 307.584 
L 259.669467 307.584 
L 259.669467 304.925538 
L 257.43047 304.925538 
z
" clip-path="url(#pdd02ae00a9)" style="fill: #1f77b4"/>
   </g>
   <g id="patch_86">
    <path d="M 259.669467 307.584 
L 261.908464 307.584 
L 261.908464 306.107077 
L 259.669467 306.107077 
z
" clip-path="url(#pdd02ae00a9)" style="fill: #1f77b4"/>
   </g>
   <g id="patch_87">
    <path d="M 261.908464 307.584 
L 264.147461 307.584 
L 264.147461 306.697846 
L 261.908464 306.697846 
z
" clip-path="url(#pdd02ae00a9)" style="fill: #1f77b4"/>
   </g>
   <g id="patch_88">
    <path d="M 264.147461 307.584 
L 266.386458 307.584 
L 266.386458 305.811692 
L 264.147461 305.811692 
z
" clip-path="url(#pdd02ae00a9)" style="fill: #1f77b4"/>
   </g>
   <g id="patch_89">
    <path d="M 266.386458 307.584 
L 268.625455 307.584 
L 268.625455 306.993231 
L 266.386458 306.993231 
z
" clip-path="url(#pdd02ae00a9)" style="fill: #1f77b4"/>
   </g>
   <g id="patch_90">
    <path d="M 268.625455 307.584 
L 270.864451 307.584 
L 270.864451 301.971692 
L 268.625455 301.971692 
z
" clip-path="url(#pdd02ae00a9)" style="fill: #1f77b4"/>
   </g>
   <g id="patch_91">
    <path d="M 270.864451 307.584 
L 273.103448 307.584 
L 273.103448 305.811692 
L 270.864451 305.811692 
z
" clip-path="url(#pdd02ae00a9)" style="fill: #1f77b4"/>
   </g>
   <g id="patch_92">
    <path d="M 273.103448 307.584 
L 275.342445 307.584 
L 275.342445 306.697846 
L 273.103448 306.697846 
z
" clip-path="url(#pdd02ae00a9)" style="fill: #1f77b4"/>
   </g>
   <g id="patch_93">
    <path d="M 275.342445 307.584 
L 277.581442 307.584 
L 277.581442 306.993231 
L 275.342445 306.993231 
z
" clip-path="url(#pdd02ae00a9)" style="fill: #1f77b4"/>
   </g>
   <g id="patch_94">
    <path d="M 277.581442 307.584 
L 279.820439 307.584 
L 279.820439 307.584 
L 277.581442 307.584 
z
" clip-path="url(#pdd02ae00a9)" style="fill: #1f77b4"/>
   </g>
   <g id="patch_95">
    <path d="M 279.820439 307.584 
L 282.059436 307.584 
L 282.059436 305.220923 
L 279.820439 305.220923 
z
" clip-path="url(#pdd02ae00a9)" style="fill: #1f77b4"/>
   </g>
   <g id="patch_96">
    <path d="M 282.059436 307.584 
L 284.298433 307.584 
L 284.298433 307.288615 
L 282.059436 307.288615 
z
" clip-path="url(#pdd02ae00a9)" style="fill: #1f77b4"/>
   </g>
   <g id="patch_97">
    <path d="M 284.298433 307.584 
L 286.537429 307.584 
L 286.537429 306.402462 
L 284.298433 306.402462 
z
" clip-path="url(#pdd02ae00a9)" style="fill: #1f77b4"/>
   </g>
   <g id="patch_98">
    <path d="M 286.537429 307.584 
L 288.776426 307.584 
L 288.776426 307.288615 
L 286.537429 307.288615 
z
" clip-path="url(#pdd02ae00a9)" style="fill: #1f77b4"/>
   </g>
   <g id="patch_99">
    <path d="M 288.776426 307.584 
L 291.015423 307.584 
L 291.015423 306.993231 
L 288.776426 306.993231 
z
" clip-path="url(#pdd02ae00a9)" style="fill: #1f77b4"/>
   </g>
   <g id="patch_100">
    <path d="M 291.015423 307.584 
L 293.25442 307.584 
L 293.25442 306.993231 
L 291.015423 306.993231 
z
" clip-path="url(#pdd02ae00a9)" style="fill: #1f77b4"/>
   </g>
   <g id="patch_101">
    <path d="M 293.25442 307.584 
L 295.493417 307.584 
L 295.493417 306.107077 
L 293.25442 306.107077 
z
" clip-path="url(#pdd02ae00a9)" style="fill: #1f77b4"/>
   </g>
   <g id="patch_102">
    <path d="M 295.493417 307.584 
L 297.732414 307.584 
L 297.732414 306.993231 
L 295.493417 306.993231 
z
" clip-path="url(#pdd02ae00a9)" style="fill: #1f77b4"/>
   </g>
   <g id="patch_103">
    <path d="M 297.732414 307.584 
L 299.971411 307.584 
L 299.971411 302.857846 
L 297.732414 302.857846 
z
" clip-path="url(#pdd02ae00a9)" style="fill: #1f77b4"/>
   </g>
   <g id="patch_104">
    <path d="M 299.971411 307.584 
L 302.210408 307.584 
L 302.210408 307.584 
L 299.971411 307.584 
z
" clip-path="url(#pdd02ae00a9)" style="fill: #1f77b4"/>
   </g>
   <g id="patch_105">
    <path d="M 302.210408 307.584 
L 304.449404 307.584 
L 304.449404 306.993231 
L 302.210408 306.993231 
z
" clip-path="url(#pdd02ae00a9)" style="fill: #1f77b4"/>
   </g>
   <g id="patch_106">
    <path d="M 304.449404 307.584 
L 306.688401 307.584 
L 306.688401 307.584 
L 304.449404 307.584 
z
" clip-path="url(#pdd02ae00a9)" style="fill: #1f77b4"/>
   </g>
   <g id="patch_107">
    <path d="M 306.688401 307.584 
L 308.927398 307.584 
L 308.927398 307.584 
L 306.688401 307.584 
z
" clip-path="url(#pdd02ae00a9)" style="fill: #1f77b4"/>
   </g>
   <g id="patch_108">
    <path d="M 308.927398 307.584 
L 311.166395 307.584 
L 311.166395 307.288615 
L 308.927398 307.288615 
z
" clip-path="url(#pdd02ae00a9)" style="fill: #1f77b4"/>
   </g>
   <g id="patch_109">
    <path d="M 311.166395 307.584 
L 313.405392 307.584 
L 313.405392 306.993231 
L 311.166395 306.993231 
z
" clip-path="url(#pdd02ae00a9)" style="fill: #1f77b4"/>
   </g>
   <g id="patch_110">
    <path d="M 313.405392 307.584 
L 315.644389 307.584 
L 315.644389 307.584 
L 313.405392 307.584 
z
" clip-path="url(#pdd02ae00a9)" style="fill: #1f77b4"/>
   </g>
   <g id="patch_111">
    <path d="M 315.644389 307.584 
L 317.883386 307.584 
L 317.883386 307.288615 
L 315.644389 307.288615 
z
" clip-path="url(#pdd02ae00a9)" style="fill: #1f77b4"/>
   </g>
   <g id="patch_112">
    <path d="M 317.883386 307.584 
L 320.122382 307.584 
L 320.122382 307.584 
L 317.883386 307.584 
z
" clip-path="url(#pdd02ae00a9)" style="fill: #1f77b4"/>
   </g>
   <g id="patch_113">
    <path d="M 320.122382 307.584 
L 322.361379 307.584 
L 322.361379 306.993231 
L 320.122382 306.993231 
z
" clip-path="url(#pdd02ae00a9)" style="fill: #1f77b4"/>
   </g>
   <g id="patch_114">
    <path d="M 322.361379 307.584 
L 324.600376 307.584 
L 324.600376 307.288615 
L 322.361379 307.288615 
z
" clip-path="url(#pdd02ae00a9)" style="fill: #1f77b4"/>
   </g>
   <g id="patch_115">
    <path d="M 324.600376 307.584 
L 326.839373 307.584 
L 326.839373 306.993231 
L 324.600376 306.993231 
z
" clip-path="url(#pdd02ae00a9)" style="fill: #1f77b4"/>
   </g>
   <g id="patch_116">
    <path d="M 326.839373 307.584 
L 329.07837 307.584 
L 329.07837 306.993231 
L 326.839373 306.993231 
z
" clip-path="url(#pdd02ae00a9)" style="fill: #1f77b4"/>
   </g>
   <g id="patch_117">
    <path d="M 329.07837 307.584 
L 331.317367 307.584 
L 331.317367 307.584 
L 329.07837 307.584 
z
" clip-path="url(#pdd02ae00a9)" style="fill: #1f77b4"/>
   </g>
   <g id="patch_118">
    <path d="M 331.317367 307.584 
L 333.556364 307.584 
L 333.556364 307.584 
L 331.317367 307.584 
z
" clip-path="url(#pdd02ae00a9)" style="fill: #1f77b4"/>
   </g>
   <g id="patch_119">
    <path d="M 333.556364 307.584 
L 335.795361 307.584 
L 335.795361 307.584 
L 333.556364 307.584 
z
" clip-path="url(#pdd02ae00a9)" style="fill: #1f77b4"/>
   </g>
   <g id="patch_120">
    <path d="M 335.795361 307.584 
L 338.034357 307.584 
L 338.034357 307.584 
L 335.795361 307.584 
z
" clip-path="url(#pdd02ae00a9)" style="fill: #1f77b4"/>
   </g>
   <g id="patch_121">
    <path d="M 338.034357 307.584 
L 340.273354 307.584 
L 340.273354 307.584 
L 338.034357 307.584 
z
" clip-path="url(#pdd02ae00a9)" style="fill: #1f77b4"/>
   </g>
   <g id="patch_122">
    <path d="M 340.273354 307.584 
L 342.512351 307.584 
L 342.512351 307.584 
L 340.273354 307.584 
z
" clip-path="url(#pdd02ae00a9)" style="fill: #1f77b4"/>
   </g>
   <g id="patch_123">
    <path d="M 342.512351 307.584 
L 344.751348 307.584 
L 344.751348 307.288615 
L 342.512351 307.288615 
z
" clip-path="url(#pdd02ae00a9)" style="fill: #1f77b4"/>
   </g>
   <g id="patch_124">
    <path d="M 344.751348 307.584 
L 346.990345 307.584 
L 346.990345 307.584 
L 344.751348 307.584 
z
" clip-path="url(#pdd02ae00a9)" style="fill: #1f77b4"/>
   </g>
   <g id="patch_125">
    <path d="M 346.990345 307.584 
L 349.229342 307.584 
L 349.229342 307.584 
L 346.990345 307.584 
z
" clip-path="url(#pdd02ae00a9)" style="fill: #1f77b4"/>
   </g>
   <g id="patch_126">
    <path d="M 349.229342 307.584 
L 351.468339 307.584 
L 351.468339 307.584 
L 349.229342 307.584 
z
" clip-path="url(#pdd02ae00a9)" style="fill: #1f77b4"/>
   </g>
   <g id="patch_127">
    <path d="M 351.468339 307.584 
L 353.707335 307.584 
L 353.707335 307.584 
L 351.468339 307.584 
z
" clip-path="url(#pdd02ae00a9)" style="fill: #1f77b4"/>
   </g>
   <g id="patch_128">
    <path d="M 353.707335 307.584 
L 355.946332 307.584 
L 355.946332 307.288615 
L 353.707335 307.288615 
z
" clip-path="url(#pdd02ae00a9)" style="fill: #1f77b4"/>
   </g>
   <g id="patch_129">
    <path d="M 355.946332 307.584 
L 358.185329 307.584 
L 358.185329 307.584 
L 355.946332 307.584 
z
" clip-path="url(#pdd02ae00a9)" style="fill: #1f77b4"/>
   </g>
   <g id="patch_130">
    <path d="M 358.185329 307.584 
L 360.424326 307.584 
L 360.424326 307.288615 
L 358.185329 307.288615 
z
" clip-path="url(#pdd02ae00a9)" style="fill: #1f77b4"/>
   </g>
   <g id="patch_131">
    <path d="M 360.424326 307.584 
L 362.663323 307.584 
L 362.663323 307.584 
L 360.424326 307.584 
z
" clip-path="url(#pdd02ae00a9)" style="fill: #1f77b4"/>
   </g>
   <g id="patch_132">
    <path d="M 362.663323 307.584 
L 364.90232 307.584 
L 364.90232 307.584 
L 362.663323 307.584 
z
" clip-path="url(#pdd02ae00a9)" style="fill: #1f77b4"/>
   </g>
   <g id="patch_133">
    <path d="M 364.90232 307.584 
L 367.141317 307.584 
L 367.141317 307.584 
L 364.90232 307.584 
z
" clip-path="url(#pdd02ae00a9)" style="fill: #1f77b4"/>
   </g>
   <g id="patch_134">
    <path d="M 367.141317 307.584 
L 369.380313 307.584 
L 369.380313 307.584 
L 367.141317 307.584 
z
" clip-path="url(#pdd02ae00a9)" style="fill: #1f77b4"/>
   </g>
   <g id="patch_135">
    <path d="M 369.380313 307.584 
L 371.61931 307.584 
L 371.61931 307.584 
L 369.380313 307.584 
z
" clip-path="url(#pdd02ae00a9)" style="fill: #1f77b4"/>
   </g>
   <g id="patch_136">
    <path d="M 371.61931 307.584 
L 373.858307 307.584 
L 373.858307 307.584 
L 371.61931 307.584 
z
" clip-path="url(#pdd02ae00a9)" style="fill: #1f77b4"/>
   </g>
   <g id="patch_137">
    <path d="M 373.858307 307.584 
L 376.097304 307.584 
L 376.097304 307.584 
L 373.858307 307.584 
z
" clip-path="url(#pdd02ae00a9)" style="fill: #1f77b4"/>
   </g>
   <g id="patch_138">
    <path d="M 376.097304 307.584 
L 378.336301 307.584 
L 378.336301 307.584 
L 376.097304 307.584 
z
" clip-path="url(#pdd02ae00a9)" style="fill: #1f77b4"/>
   </g>
   <g id="patch_139">
    <path d="M 378.336301 307.584 
L 380.575298 307.584 
L 380.575298 307.584 
L 378.336301 307.584 
z
" clip-path="url(#pdd02ae00a9)" style="fill: #1f77b4"/>
   </g>
   <g id="patch_140">
    <path d="M 380.575298 307.584 
L 382.814295 307.584 
L 382.814295 307.584 
L 380.575298 307.584 
z
" clip-path="url(#pdd02ae00a9)" style="fill: #1f77b4"/>
   </g>
   <g id="patch_141">
    <path d="M 382.814295 307.584 
L 385.053292 307.584 
L 385.053292 307.584 
L 382.814295 307.584 
z
" clip-path="url(#pdd02ae00a9)" style="fill: #1f77b4"/>
   </g>
   <g id="patch_142">
    <path d="M 385.053292 307.584 
L 387.292288 307.584 
L 387.292288 307.584 
L 385.053292 307.584 
z
" clip-path="url(#pdd02ae00a9)" style="fill: #1f77b4"/>
   </g>
   <g id="patch_143">
    <path d="M 387.292288 307.584 
L 389.531285 307.584 
L 389.531285 306.993231 
L 387.292288 306.993231 
z
" clip-path="url(#pdd02ae00a9)" style="fill: #1f77b4"/>
   </g>
   <g id="patch_144">
    <path d="M 389.531285 307.584 
L 391.770282 307.584 
L 391.770282 307.584 
L 389.531285 307.584 
z
" clip-path="url(#pdd02ae00a9)" style="fill: #1f77b4"/>
   </g>
   <g id="patch_145">
    <path d="M 391.770282 307.584 
L 394.009279 307.584 
L 394.009279 307.584 
L 391.770282 307.584 
z
" clip-path="url(#pdd02ae00a9)" style="fill: #1f77b4"/>
   </g>
   <g id="patch_146">
    <path d="M 394.009279 307.584 
L 396.248276 307.584 
L 396.248276 307.288615 
L 394.009279 307.288615 
z
" clip-path="url(#pdd02ae00a9)" style="fill: #1f77b4"/>
   </g>
   <g id="patch_147">
    <path d="M 396.248276 307.584 
L 398.487273 307.584 
L 398.487273 307.584 
L 396.248276 307.584 
z
" clip-path="url(#pdd02ae00a9)" style="fill: #1f77b4"/>
   </g>
   <g id="matplotlib.axis_1">
    <g id="xtick_1">
     <g id="line2d_1">
      <defs>
       <path id="mc31df8403b" d="M 0 0 
L 0 3.5 
" style="stroke: #000000; stroke-width: 0.8"/>
      </defs>
      <g>
       <use xlink:href="#mc31df8403b" x="73.832727" y="307.584" style="stroke: #000000; stroke-width: 0.8"/>
      </g>
     </g>
     <g id="text_1">
      <!-- 0.0 -->
      <g transform="translate(65.881165 322.182437) scale(0.1 -0.1)">
       <defs>
        <path id="DejaVuSans-30" d="M 2034 4250 
Q 1547 4250 1301 3770 
Q 1056 3291 1056 2328 
Q 1056 1369 1301 889 
Q 1547 409 2034 409 
Q 2525 409 2770 889 
Q 3016 1369 3016 2328 
Q 3016 3291 2770 3770 
Q 2525 4250 2034 4250 
z
M 2034 4750 
Q 2819 4750 3233 4129 
Q 3647 3509 3647 2328 
Q 3647 1150 3233 529 
Q 2819 -91 2034 -91 
Q 1250 -91 836 529 
Q 422 1150 422 2328 
Q 422 3509 836 4129 
Q 1250 4750 2034 4750 
z
" transform="scale(0.015625)"/>
        <path id="DejaVuSans-2e" d="M 684 794 
L 1344 794 
L 1344 0 
L 684 0 
L 684 794 
z
" transform="scale(0.015625)"/>
       </defs>
       <use xlink:href="#DejaVuSans-30"/>
       <use xlink:href="#DejaVuSans-2e" x="63.623047"/>
       <use xlink:href="#DejaVuSans-30" x="95.410156"/>
      </g>
     </g>
    </g>
    <g id="xtick_2">
     <g id="line2d_2">
      <g>
       <use xlink:href="#mc31df8403b" x="208.172539" y="307.584" style="stroke: #000000; stroke-width: 0.8"/>
      </g>
     </g>
     <g id="text_2">
      <!-- 0.6 -->
      <g transform="translate(200.220977 322.182437) scale(0.1 -0.1)">
       <defs>
        <path id="DejaVuSans-36" d="M 2113 2584 
Q 1688 2584 1439 2293 
Q 1191 2003 1191 1497 
Q 1191 994 1439 701 
Q 1688 409 2113 409 
Q 2538 409 2786 701 
Q 3034 994 3034 1497 
Q 3034 2003 2786 2293 
Q 2538 2584 2113 2584 
z
M 3366 4563 
L 3366 3988 
Q 3128 4100 2886 4159 
Q 2644 4219 2406 4219 
Q 1781 4219 1451 3797 
Q 1122 3375 1075 2522 
Q 1259 2794 1537 2939 
Q 1816 3084 2150 3084 
Q 2853 3084 3261 2657 
Q 3669 2231 3669 1497 
Q 3669 778 3244 343 
Q 2819 -91 2113 -91 
Q 1303 -91 875 529 
Q 447 1150 447 2328 
Q 447 3434 972 4092 
Q 1497 4750 2381 4750 
Q 2619 4750 2861 4703 
Q 3103 4656 3366 4563 
z
" transform="scale(0.015625)"/>
       </defs>
       <use xlink:href="#DejaVuSans-30"/>
       <use xlink:href="#DejaVuSans-2e" x="63.623047"/>
       <use xlink:href="#DejaVuSans-36" x="95.410156"/>
      </g>
     </g>
    </g>
    <g id="xtick_3">
     <g id="line2d_3">
      <g>
       <use xlink:href="#mc31df8403b" x="230.562508" y="307.584" style="stroke: #000000; stroke-width: 0.8"/>
      </g>
     </g>
     <g id="text_3">
      <!-- 0.7 -->
      <g transform="translate(222.610945 322.182437) scale(0.1 -0.1)">
       <defs>
        <path id="DejaVuSans-37" d="M 525 4666 
L 3525 4666 
L 3525 4397 
L 1831 0 
L 1172 0 
L 2766 4134 
L 525 4134 
L 525 4666 
z
" transform="scale(0.015625)"/>
       </defs>
       <use xlink:href="#DejaVuSans-30"/>
       <use xlink:href="#DejaVuSans-2e" x="63.623047"/>
       <use xlink:href="#DejaVuSans-37" x="95.410156"/>
      </g>
     </g>
    </g>
    <g id="xtick_4">
     <g id="line2d_4">
      <g>
       <use xlink:href="#mc31df8403b" x="252.952476" y="307.584" style="stroke: #000000; stroke-width: 0.8"/>
      </g>
     </g>
     <g id="text_4">
      <!-- 0.8 -->
      <g transform="translate(245.000914 322.182437) scale(0.1 -0.1)">
       <defs>
        <path id="DejaVuSans-38" d="M 2034 2216 
Q 1584 2216 1326 1975 
Q 1069 1734 1069 1313 
Q 1069 891 1326 650 
Q 1584 409 2034 409 
Q 2484 409 2743 651 
Q 3003 894 3003 1313 
Q 3003 1734 2745 1975 
Q 2488 2216 2034 2216 
z
M 1403 2484 
Q 997 2584 770 2862 
Q 544 3141 544 3541 
Q 544 4100 942 4425 
Q 1341 4750 2034 4750 
Q 2731 4750 3128 4425 
Q 3525 4100 3525 3541 
Q 3525 3141 3298 2862 
Q 3072 2584 2669 2484 
Q 3125 2378 3379 2068 
Q 3634 1759 3634 1313 
Q 3634 634 3220 271 
Q 2806 -91 2034 -91 
Q 1263 -91 848 271 
Q 434 634 434 1313 
Q 434 1759 690 2068 
Q 947 2378 1403 2484 
z
M 1172 3481 
Q 1172 3119 1398 2916 
Q 1625 2713 2034 2713 
Q 2441 2713 2670 2916 
Q 2900 3119 2900 3481 
Q 2900 3844 2670 4047 
Q 2441 4250 2034 4250 
Q 1625 4250 1398 4047 
Q 1172 3844 1172 3481 
z
" transform="scale(0.015625)"/>
       </defs>
       <use xlink:href="#DejaVuSans-30"/>
       <use xlink:href="#DejaVuSans-2e" x="63.623047"/>
       <use xlink:href="#DejaVuSans-38" x="95.410156"/>
      </g>
     </g>
    </g>
    <g id="xtick_5">
     <g id="line2d_5">
      <g>
       <use xlink:href="#mc31df8403b" x="387.292288" y="307.584" style="stroke: #000000; stroke-width: 0.8"/>
      </g>
     </g>
     <g id="text_5">
      <!-- 1.4 -->
      <g transform="translate(379.340726 322.182437) scale(0.1 -0.1)">
       <defs>
        <path id="DejaVuSans-31" d="M 794 531 
L 1825 531 
L 1825 4091 
L 703 3866 
L 703 4441 
L 1819 4666 
L 2450 4666 
L 2450 531 
L 3481 531 
L 3481 0 
L 794 0 
L 794 531 
z
" transform="scale(0.015625)"/>
        <path id="DejaVuSans-34" d="M 2419 4116 
L 825 1625 
L 2419 1625 
L 2419 4116 
z
M 2253 4666 
L 3047 4666 
L 3047 1625 
L 3713 1625 
L 3713 1100 
L 3047 1100 
L 3047 0 
L 2419 0 
L 2419 1100 
L 313 1100 
L 313 1709 
L 2253 4666 
z
" transform="scale(0.015625)"/>
       </defs>
       <use xlink:href="#DejaVuSans-31"/>
       <use xlink:href="#DejaVuSans-2e" x="63.623047"/>
       <use xlink:href="#DejaVuSans-34" x="95.410156"/>
      </g>
     </g>
    </g>
    <g id="text_6">
     <!-- cap height / em -->
     <g transform="translate(196.836562 335.860562) scale(0.1 -0.1)">
      <defs>
       <path id="DejaVuSans-63" d="M 3122 3366 
L 3122 2828 
Q 2878 2963 2633 3030 
Q 2388 3097 2138 3097 
Q 1578 3097 1268 2742 
Q 959 2388 959 1747 
Q 959 1106 1268 751 
Q 1578 397 2138 397 
Q 2388 397 2633 464 
Q 2878 531 3122 666 
L 3122 134 
Q 2881 22 2623 -34 
Q 2366 -91 2075 -91 
Q 1284 -91 818 406 
Q 353 903 353 1747 
Q 353 2603 823 3093 
Q 1294 3584 2113 3584 
Q 2378 3584 2631 3529 
Q 2884 3475 3122 3366 
z
" transform="scale(0.015625)"/>
       <path id="DejaVuSans-61" d="M 2194 1759 
Q 1497 1759 1228 1600 
Q 959 1441 959 1056 
Q 959 750 1161 570 
Q 1363 391 1709 391 
Q 2188 391 2477 730 
Q 2766 1069 2766 1631 
L 2766 1759 
L 2194 1759 
z
M 3341 1997 
L 3341 0 
L 2766 0 
L 2766 531 
Q 2569 213 2275 61 
Q 1981 -91 1556 -91 
Q 1019 -91 701 211 
Q 384 513 384 1019 
Q 384 1609 779 1909 
Q 1175 2209 1959 2209 
L 2766 2209 
L 2766 2266 
Q 2766 2663 2505 2880 
Q 2244 3097 1772 3097 
Q 1472 3097 1187 3025 
Q 903 2953 641 2809 
L 641 3341 
Q 956 3463 1253 3523 
Q 1550 3584 1831 3584 
Q 2591 3584 2966 3190 
Q 3341 2797 3341 1997 
z
" transform="scale(0.015625)"/>
       <path id="DejaVuSans-70" d="M 1159 525 
L 1159 -1331 
L 581 -1331 
L 581 3500 
L 1159 3500 
L 1159 2969 
Q 1341 3281 1617 3432 
Q 1894 3584 2278 3584 
Q 2916 3584 3314 3078 
Q 3713 2572 3713 1747 
Q 3713 922 3314 415 
Q 2916 -91 2278 -91 
Q 1894 -91 1617 61 
Q 1341 213 1159 525 
z
M 3116 1747 
Q 3116 2381 2855 2742 
Q 2594 3103 2138 3103 
Q 1681 3103 1420 2742 
Q 1159 2381 1159 1747 
Q 1159 1113 1420 752 
Q 1681 391 2138 391 
Q 2594 391 2855 752 
Q 3116 1113 3116 1747 
z
" transform="scale(0.015625)"/>
       <path id="DejaVuSans-20" transform="scale(0.015625)"/>
       <path id="DejaVuSans-68" d="M 3513 2113 
L 3513 0 
L 2938 0 
L 2938 2094 
Q 2938 2591 2744 2837 
Q 2550 3084 2163 3084 
Q 1697 3084 1428 2787 
Q 1159 2491 1159 1978 
L 1159 0 
L 581 0 
L 581 4863 
L 1159 4863 
L 1159 2956 
Q 1366 3272 1645 3428 
Q 1925 3584 2291 3584 
Q 2894 3584 3203 3211 
Q 3513 2838 3513 2113 
z
" transform="scale(0.015625)"/>
       <path id="DejaVuSans-65" d="M 3597 1894 
L 3597 1613 
L 953 1613 
Q 991 1019 1311 708 
Q 1631 397 2203 397 
Q 2534 397 2845 478 
Q 3156 559 3463 722 
L 3463 178 
Q 3153 47 2828 -22 
Q 2503 -91 2169 -91 
Q 1331 -91 842 396 
Q 353 884 353 1716 
Q 353 2575 817 3079 
Q 1281 3584 2069 3584 
Q 2775 3584 3186 3129 
Q 3597 2675 3597 1894 
z
M 3022 2063 
Q 3016 2534 2758 2815 
Q 2500 3097 2075 3097 
Q 1594 3097 1305 2825 
Q 1016 2553 972 2059 
L 3022 2063 
z
" transform="scale(0.015625)"/>
       <path id="DejaVuSans-69" d="M 603 3500 
L 1178 3500 
L 1178 0 
L 603 0 
L 603 3500 
z
M 603 4863 
L 1178 4863 
L 1178 4134 
L 603 4134 
L 603 4863 
z
" transform="scale(0.015625)"/>
       <path id="DejaVuSans-67" d="M 2906 1791 
Q 2906 2416 2648 2759 
Q 2391 3103 1925 3103 
Q 1463 3103 1205 2759 
Q 947 2416 947 1791 
Q 947 1169 1205 825 
Q 1463 481 1925 481 
Q 2391 481 2648 825 
Q 2906 1169 2906 1791 
z
M 3481 434 
Q 3481 -459 3084 -895 
Q 2688 -1331 1869 -1331 
Q 1566 -1331 1297 -1286 
Q 1028 -1241 775 -1147 
L 775 -588 
Q 1028 -725 1275 -790 
Q 1522 -856 1778 -856 
Q 2344 -856 2625 -561 
Q 2906 -266 2906 331 
L 2906 616 
Q 2728 306 2450 153 
Q 2172 0 1784 0 
Q 1141 0 747 490 
Q 353 981 353 1791 
Q 353 2603 747 3093 
Q 1141 3584 1784 3584 
Q 2172 3584 2450 3431 
Q 2728 3278 2906 2969 
L 2906 3500 
L 3481 3500 
L 3481 434 
z
" transform="scale(0.015625)"/>
       <path id="DejaVuSans-74" d="M 1172 4494 
L 1172 3500 
L 2356 3500 
L 2356 3053 
L 1172 3053 
L 1172 1153 
Q 1172 725 1289 603 
Q 1406 481 1766 481 
L 2356 481 
L 2356 0 
L 1766 0 
Q 1100 0 847 248 
Q 594 497 594 1153 
L 594 3053 
L 172 3053 
L 172 3500 
L 594 3500 
L 594 4494 
L 1172 4494 
z
" transform="scale(0.015625)"/>
       <path id="DejaVuSans-2f" d="M 1625 4666 
L 2156 4666 
L 531 -594 
L 0 -594 
L 1625 4666 
z
" transform="scale(0.015625)"/>
       <path id="DejaVuSans-6d" d="M 3328 2828 
Q 3544 3216 3844 3400 
Q 4144 3584 4550 3584 
Q 5097 3584 5394 3201 
Q 5691 2819 5691 2113 
L 5691 0 
L 5113 0 
L 5113 2094 
Q 5113 2597 4934 2840 
Q 4756 3084 4391 3084 
Q 3944 3084 3684 2787 
Q 3425 2491 3425 1978 
L 3425 0 
L 2847 0 
L 2847 2094 
Q 2847 2600 2669 2842 
Q 2491 3084 2119 3084 
Q 1678 3084 1418 2786 
Q 1159 2488 1159 1978 
L 1159 0 
L 581 0 
L 581 3500 
L 1159 3500 
L 1159 2956 
Q 1356 3278 1631 3431 
Q 1906 3584 2284 3584 
Q 2666 3584 2933 3390 
Q 3200 3197 3328 2828 
z
" transform="scale(0.015625)"/>
      </defs>
      <use xlink:href="#DejaVuSans-63"/>
      <use xlink:href="#DejaVuSans-61" x="54.980469"/>
      <use xlink:href="#DejaVuSans-70" x="116.259766"/>
      <use xlink:href="#DejaVuSans-20" x="179.736328"/>
      <use xlink:href="#DejaVuSans-68" x="211.523438"/>
      <use xlink:href="#DejaVuSans-65" x="274.902344"/>
      <use xlink:href="#DejaVuSans-69" x="336.425781"/>
      <use xlink:href="#DejaVuSans-67" x="364.208984"/>
      <use xlink:href="#DejaVuSans-68" x="427.685547"/>
      <use xlink:href="#DejaVuSans-74" x="491.064453"/>
      <use xlink:href="#DejaVuSans-20" x="530.273438"/>
      <use xlink:href="#DejaVuSans-2f" x="562.060547"/>
      <use xlink:href="#DejaVuSans-20" x="595.751953"/>
      <use xlink:href="#DejaVuSans-65" x="627.539062"/>
      <use xlink:href="#DejaVuSans-6d" x="689.0625"/>
     </g>
    </g>
   </g>
   <g id="matplotlib.axis_2">
    <g id="ytick_1">
     <g id="line2d_6">
      <defs>
       <path id="m7a3f139430" d="M 0 0 
L -3.5 0 
" style="stroke: #000000; stroke-width: 0.8"/>
      </defs>
      <g>
       <use xlink:href="#m7a3f139430" x="57.6" y="307.584" style="stroke: #000000; stroke-width: 0.8"/>
      </g>
     </g>
     <g id="text_7">
      <!-- 0 -->
      <g transform="translate(44.2375 311.383219) scale(0.1 -0.1)">
       <use xlink:href="#DejaVuSans-30"/>
      </g>
     </g>
    </g>
    <g id="ytick_2">
     <g id="line2d_7">
      <g>
       <use xlink:href="#m7a3f139430" x="57.6" y="248.507077" style="stroke: #000000; stroke-width: 0.8"/>
      </g>
     </g>
     <g id="text_8">
      <!-- 200 -->
      <g transform="translate(31.5125 252.306296) scale(0.1 -0.1)">
       <defs>
        <path id="DejaVuSans-32" d="M 1228 531 
L 3431 531 
L 3431 0 
L 469 0 
L 469 531 
Q 828 903 1448 1529 
Q 2069 2156 2228 2338 
Q 2531 2678 2651 2914 
Q 2772 3150 2772 3378 
Q 2772 3750 2511 3984 
Q 2250 4219 1831 4219 
Q 1534 4219 1204 4116 
Q 875 4013 500 3803 
L 500 4441 
Q 881 4594 1212 4672 
Q 1544 4750 1819 4750 
Q 2544 4750 2975 4387 
Q 3406 4025 3406 3419 
Q 3406 3131 3298 2873 
Q 3191 2616 2906 2266 
Q 2828 2175 2409 1742 
Q 1991 1309 1228 531 
z
" transform="scale(0.015625)"/>
       </defs>
       <use xlink:href="#DejaVuSans-32"/>
       <use xlink:href="#DejaVuSans-30" x="63.623047"/>
       <use xlink:href="#DejaVuSans-30" x="127.246094"/>
      </g>
     </g>
    </g>
    <g id="ytick_3">
     <g id="line2d_8">
      <g>
       <use xlink:href="#m7a3f139430" x="57.6" y="189.430154" style="stroke: #000000; stroke-width: 0.8"/>
      </g>
     </g>
     <g id="text_9">
      <!-- 400 -->
      <g transform="translate(31.5125 193.229373) scale(0.1 -0.1)">
       <use xlink:href="#DejaVuSans-34"/>
       <use xlink:href="#DejaVuSans-30" x="63.623047"/>
       <use xlink:href="#DejaVuSans-30" x="127.246094"/>
      </g>
     </g>
    </g>
    <g id="ytick_4">
     <g id="line2d_9">
      <g>
       <use xlink:href="#m7a3f139430" x="57.6" y="130.353231" style="stroke: #000000; stroke-width: 0.8"/>
      </g>
     </g>
     <g id="text_10">
      <!-- 600 -->
      <g transform="translate(31.5125 134.15245) scale(0.1 -0.1)">
       <use xlink:href="#DejaVuSans-36"/>
       <use xlink:href="#DejaVuSans-30" x="63.623047"/>
       <use xlink:href="#DejaVuSans-30" x="127.246094"/>
      </g>
     </g>
    </g>
    <g id="ytick_5">
     <g id="line2d_10">
      <g>
       <use xlink:href="#m7a3f139430" x="57.6" y="71.276308" style="stroke: #000000; stroke-width: 0.8"/>
      </g>
     </g>
     <g id="text_11">
      <!-- 800 -->
      <g transform="translate(31.5125 75.075526) scale(0.1 -0.1)">
       <use xlink:href="#DejaVuSans-38"/>
       <use xlink:href="#DejaVuSans-30" x="63.623047"/>
       <use xlink:href="#DejaVuSans-30" x="127.246094"/>
      </g>
     </g>
    </g>
    <g id="text_12">
     <!-- # of font files -->
     <g transform="translate(25.432812 208.472531) rotate(-90) scale(0.1 -0.1)">
      <defs>
       <path id="DejaVuSans-23" d="M 3272 2816 
L 2363 2816 
L 2100 1772 
L 3016 1772 
L 3272 2816 
z
M 2803 4594 
L 2478 3297 
L 3391 3297 
L 3719 4594 
L 4219 4594 
L 3897 3297 
L 4872 3297 
L 4872 2816 
L 3775 2816 
L 3519 1772 
L 4513 1772 
L 4513 1294 
L 3397 1294 
L 3072 0 
L 2572 0 
L 2894 1294 
L 1978 1294 
L 1656 0 
L 1153 0 
L 1478 1294 
L 494 1294 
L 494 1772 
L 1594 1772 
L 1856 2816 
L 850 2816 
L 850 3297 
L 1978 3297 
L 2297 4594 
L 2803 4594 
z
" transform="scale(0.015625)"/>
       <path id="DejaVuSans-6f" d="M 1959 3097 
Q 1497 3097 1228 2736 
Q 959 2375 959 1747 
Q 959 1119 1226 758 
Q 1494 397 1959 397 
Q 2419 397 2687 759 
Q 2956 1122 2956 1747 
Q 2956 2369 2687 2733 
Q 2419 3097 1959 3097 
z
M 1959 3584 
Q 2709 3584 3137 3096 
Q 3566 2609 3566 1747 
Q 3566 888 3137 398 
Q 2709 -91 1959 -91 
Q 1206 -91 779 398 
Q 353 888 353 1747 
Q 353 2609 779 3096 
Q 1206 3584 1959 3584 
z
" transform="scale(0.015625)"/>
       <path id="DejaVuSans-66" d="M 2375 4863 
L 2375 4384 
L 1825 4384 
Q 1516 4384 1395 4259 
Q 1275 4134 1275 3809 
L 1275 3500 
L 2222 3500 
L 2222 3053 
L 1275 3053 
L 1275 0 
L 697 0 
L 697 3053 
L 147 3053 
L 147 3500 
L 697 3500 
L 697 3744 
Q 697 4328 969 4595 
Q 1241 4863 1831 4863 
L 2375 4863 
z
" transform="scale(0.015625)"/>
       <path id="DejaVuSans-6e" d="M 3513 2113 
L 3513 0 
L 2938 0 
L 2938 2094 
Q 2938 2591 2744 2837 
Q 2550 3084 2163 3084 
Q 1697 3084 1428 2787 
Q 1159 2491 1159 1978 
L 1159 0 
L 581 0 
L 581 3500 
L 1159 3500 
L 1159 2956 
Q 1366 3272 1645 3428 
Q 1925 3584 2291 3584 
Q 2894 3584 3203 3211 
Q 3513 2838 3513 2113 
z
" transform="scale(0.015625)"/>
       <path id="DejaVuSans-6c" d="M 603 4863 
L 1178 4863 
L 1178 0 
L 603 0 
L 603 4863 
z
" transform="scale(0.015625)"/>
       <path id="DejaVuSans-73" d="M 2834 3397 
L 2834 2853 
Q 2591 2978 2328 3040 
Q 2066 3103 1784 3103 
Q 1356 3103 1142 2972 
Q 928 2841 928 2578 
Q 928 2378 1081 2264 
Q 1234 2150 1697 2047 
L 1894 2003 
Q 2506 1872 2764 1633 
Q 3022 1394 3022 966 
Q 3022 478 2636 193 
Q 2250 -91 1575 -91 
Q 1294 -91 989 -36 
Q 684 19 347 128 
L 347 722 
Q 666 556 975 473 
Q 1284 391 1588 391 
Q 1994 391 2212 530 
Q 2431 669 2431 922 
Q 2431 1156 2273 1281 
Q 2116 1406 1581 1522 
L 1381 1569 
Q 847 1681 609 1914 
Q 372 2147 372 2553 
Q 372 3047 722 3315 
Q 1072 3584 1716 3584 
Q 2034 3584 2315 3537 
Q 2597 3491 2834 3397 
z
" transform="scale(0.015625)"/>
      </defs>
      <use xlink:href="#DejaVuSans-23"/>
      <use xlink:href="#DejaVuSans-20" x="83.789062"/>
      <use xlink:href="#DejaVuSans-6f" x="115.576172"/>
      <use xlink:href="#DejaVuSans-66" x="176.757812"/>
      <use xlink:href="#DejaVuSans-20" x="211.962891"/>
      <use xlink:href="#DejaVuSans-66" x="243.75"/>
      <use xlink:href="#DejaVuSans-6f" x="278.955078"/>
      <use xlink:href="#DejaVuSans-6e" x="340.136719"/>
      <use xlink:href="#DejaVuSans-74" x="403.515625"/>
      <use xlink:href="#DejaVuSans-20" x="442.724609"/>
      <use xlink:href="#DejaVuSans-66" x="474.511719"/>
      <use xlink:href="#DejaVuSans-69" x="509.716797"/>
      <use xlink:href="#DejaVuSans-6c" x="537.5"/>
      <use xlink:href="#DejaVuSans-65" x="565.283203"/>
      <use xlink:href="#DejaVuSans-73" x="626.806641"/>
     </g>
    </g>
   </g>
   <g id="patch_148">
    <path d="M 57.6 307.584 
L 57.6 41.472 
" style="fill: none; stroke: #000000; stroke-width: 0.8; stroke-linejoin: miter; stroke-linecap: square"/>
   </g>
   <g id="patch_149">
    <path d="M 414.72 307.584 
L 414.72 41.472 
" style="fill: none; stroke: #000000; stroke-width: 0.8; stroke-linejoin: miter; stroke-linecap: square"/>
   </g>
   <g id="patch_150">
    <path d="M 57.6 307.584 
L 414.72 307.584 
" style="fill: none; stroke: #000000; stroke-width: 0.8; stroke-linejoin: miter; stroke-linecap: square"/>
   </g>
   <g id="patch_151">
    <path d="M 57.6 41.472 
L 414.72 41.472 
" style="fill: none; stroke: #000000; stroke-width: 0.8; stroke-linejoin: miter; stroke-linecap: square"/>
   </g>
  </g>
 </g>
 <defs>
  <clipPath id="pdd02ae00a9">
   <rect x="57.6" y="41.472" width="357.12" height="266.112"/>
  </clipPath>
 </defs>
</svg>
