<svg xmlns="http://www.w3.org/2000/svg" viewBox="0 0 128 128">
	<!-- https://github.com/googlefonts/noto-emoji/blob/v2020-07-22-unicode13_0/svg/emoji_u1f63e.svg -->
	<path fill="#ffc022" d="M114.11 70.76C112.31 44.78 94.44 26.3 64 26.3S15.69 44.78 13.89 70.76c-1.05 15.14 5.05 28.01 17.09 36.21 0 0 12.21 9.88 33.02 10.14 20.81-.26 33.02-10.14 33.02-10.14C109.05 98.77 115.16 85.9 114.11 70.76M48.21 28.24c-16.58-4.84-16.84-18.72-22.64-20.54-2.19-.69-4.44-.04-5.82 1.88-4.69 6.51-9.34 23.29-2.36 46.02M110.61 55.6c6.98-22.73 2.33-39.51-2.36-46.02-1.38-1.92-3.63-2.57-5.82-1.88-5.8 1.82-6.06 15.7-22.64 20.54"/>
	<path fill="#ff9a32" d="M54.12 45.02c1.13.96 3.42.82 4.75-.72 1.61-1.87 3.29-8.17 2.24-17.91-4.67.17-9.09.84-13.21 1.97C51.23 33.82 52.03 43.24 54.12 45.02M73.88 45.02c-1.13.96-3.42.82-4.75-.72-1.61-1.87-3.29-8.17-2.24-17.91 4.67.17 9.09.84 13.21 1.97C76.77 33.82 75.97 43.24 73.88 45.02M21.6 16.09c-1.44 2.25-2.11 4.92-2.41 7.57-.95 8.42.43 16.93 3.19 21.35 1.52 2.43 2.36-.98 5.28-3.28M106.4 16.09c1.44 2.25 2.11 4.92 2.41 7.57.95 8.42-.43 16.93-3.19 21.35-1.52 2.43-2.36-.98-5.28-3.28"/>
	<path stroke="#9e9e9e" stroke-linecap="round" stroke-width="3" d="M7.5 62 22.94 73.37M3.93 74.92 22.07 80.39M6.43 90.5 23.07 87.39M121.57 62.1 105.06 73.37M124.07 74.75 105.93 80.39M122.47 88.86 104.93 87.39"/>
	<path fill="#ef6c00" d="M25.27 39.61c-3.47-8.92-4.95-16.63-3.91-22.75.63-3.72 1.72-6.2 2.54-7.65.19-.34.71-.13.62.24-.61 2.68-1.35 8.11.83 16.94.64 2.59 4.15 11.32 5.15 12.45 1.25 1.41 1.85 3.46-.99 5.67-3.33 2.59-7.06 6.5-9.02 8.63-.31.33-.85-.01-.68-.43.73-1.85 2.09-4.8 4.31-7.86C25.54 42.89 26.02 41.53 25.27 39.61M102.73 39.61c3.47-8.92 4.95-16.63 3.91-22.75-.63-3.72-1.72-6.2-2.54-7.65-.19-.34-.71-.13-.62.24.61 2.68 1.35 8.11-.83 16.94-.64 2.59-4.15 11.32-5.15 12.45-1.25 1.41-1.85 3.46.99 5.67 3.33 2.59 7.06 6.5 9.02 8.63.31.33.85-.01.68-.43-.73-1.85-2.09-4.8-4.31-7.86C102.46 42.89 101.98 41.53 102.73 39.61"/>
	<path d="M33.85 64.28c0-2.81.95-6.99 2.42-7.41.45-.13.99-.06 1.36.23 5.16 3.95 8.79 5.85 9.21 6.15 3.53 2.5-1.65 9.4-5.72 9.47C37.19 72.79 33.85 69.01 33.85 64.28M94.14 64.28c0-3.09-.52-6.33-1.99-6.74-.45-.13-.99-.06-1.36.23-5.16 3.95-9.22 5.19-9.64 5.49-3.53 2.5 1.65 9.4 5.72 9.47C90.8 72.79 94.14 69.01 94.14 64.28M82.55 98.21c-1.27-.84-6.7-3.7-11.04-5.83-3.25-1.6-5.28-4.94-5.28-8.56v-2.28h-4.45v2.28c0 3.62-2.03 6.97-5.28 8.56-4.34 2.13-9.77 4.99-11.04 5.83-1.03.68-1.31 2.06-.63 3.08.43.65 1.14 1 1.86 1 .42 0 .85-.12 1.22-.37 4.77-3.14 9.35-6.52 16.1-6.52s11.23 3.32 16.01 6.46c.97.64 2.3.52 3.04-.38.83-1.04.58-2.55-.51-3.27M55.96 76.97c.05 2.86 5.04 6.4 8.12 6.4s8-3.78 7.95-6.64-4.23-4.12-8.12-4.06-8 1.44-7.95 4.3"/>
</svg>