<svg width="77" height="41" viewBox="0 0 77 41" xmlns="http://www.w3.org/2000/svg">
<path d="M48 1H76V40H48V1ZM51.6 1.32L48 4.8" fill="white" stroke="black" stroke-width="0.24"/>
<path d="M65.9069 23.0412C65.8496 23.077 65.7887 23.1022 65.7242 23.1168C65.6598 23.1311 65.5846 23.1382 65.4987 23.1382C65.3912 23.1382 65.2659 23.1166 65.1227 23.0735C65.094 23.3028 65.0242 23.5018 64.9132 23.6703C64.8022 23.8388 64.6715 23.9983 64.5211 24.1487C63.8909 24.7795 63.3861 25.2526 63.0065 25.568C62.627 25.8833 62.2689 26.041 61.9323 26.041C61.5957 26.041 61.2359 25.8833 60.8527 25.568C60.4696 25.2526 59.9629 24.7795 59.3327 24.1487C59.1895 23.9983 59.0624 23.8388 58.9514 23.6703C58.8404 23.5018 58.7705 23.3028 58.7419 23.0735C58.5772 23.1166 58.4519 23.1382 58.3659 23.1382C58.28 23.1382 58.203 23.1311 58.135 23.1168C58.0669 23.1022 58.0043 23.077 57.947 23.0412L57.2273 22.2994C57.1771 22.2134 57.1521 22.0808 57.1521 21.9016C57.1521 21.8443 57.1521 21.7852 57.1521 21.7243C57.1521 21.6634 57.1664 21.5971 57.195 21.5253C56.9945 21.4966 56.803 21.4268 56.6203 21.3158C56.4377 21.2046 56.2641 21.0702 56.0993 20.9126C55.4835 20.3106 55.018 19.8179 54.7029 19.4346C54.3878 19.051 54.2302 18.6907 54.2302 18.3537C54.2302 18.0312 54.3878 17.6657 54.7029 17.2573C55.018 16.8486 55.4906 16.3326 56.1208 15.7091C56.2712 15.5656 56.4377 15.4456 56.6203 15.3489C56.803 15.252 56.9945 15.1749 57.195 15.1176C57.1807 15.046 57.17 14.9851 57.1628 14.935C57.1557 14.8846 57.1521 14.8272 57.1521 14.7628C57.1521 14.605 57.1771 14.4688 57.2273 14.3542L57.9255 13.6231C58.0258 13.5801 58.1654 13.5587 58.3444 13.5587C58.4017 13.5587 58.4608 13.5622 58.5217 13.5694C58.5826 13.5766 58.6488 13.5873 58.7204 13.6016C58.7491 13.3946 58.8189 13.2001 58.9299 13.0182C59.0409 12.8363 59.168 12.6739 59.3112 12.5311C59.9414 11.9175 60.4517 11.4484 60.842 11.1239C61.2323 10.7992 61.5957 10.6368 61.9323 10.6368C62.2546 10.6368 62.6126 10.7992 63.0065 11.1239C63.4004 11.4484 63.916 11.9175 64.5534 12.5311C64.6966 12.6739 64.8237 12.8363 64.9347 13.0182C65.0457 13.2001 65.1155 13.3946 65.1442 13.6016C65.2158 13.5873 65.2802 13.5766 65.3375 13.5694C65.3948 13.5622 65.4557 13.5587 65.5202 13.5587C65.6777 13.5587 65.8173 13.5801 65.9391 13.6231L66.6373 14.3542C66.6803 14.4688 66.7018 14.605 66.7018 14.7628C66.7018 14.8272 66.6982 14.8846 66.691 14.935C66.6839 14.9851 66.6731 15.046 66.6588 15.1176C66.8665 15.1749 67.0616 15.252 67.2443 15.3489C67.4269 15.4456 67.5898 15.5656 67.733 15.7091C68.3704 16.3326 68.8466 16.8486 69.1617 17.2573C69.4768 17.6657 69.6344 18.0312 69.6344 18.3537C69.6344 18.6907 69.4768 19.0473 69.1617 19.4235C68.8466 19.7997 68.3811 20.2961 67.7652 20.9126C67.6005 21.0702 67.4269 21.2046 67.2443 21.3158C67.0616 21.4268 66.8665 21.4966 66.6588 21.5253C66.6875 21.5971 66.7018 21.6634 66.7018 21.7243C66.7018 21.7852 66.7018 21.8443 66.7018 21.9016C66.7018 22.0808 66.6803 22.2134 66.6373 22.2994L65.9069 23.0412ZM65.5416 20.7559C65.7278 20.8776 65.9319 20.9385 66.1539 20.9385C66.3186 20.9241 66.4887 20.8901 66.6642 20.8364C66.8396 20.7827 67.0133 20.6699 67.1852 20.498C67.7294 19.9681 68.1341 19.542 68.399 19.2197C68.664 18.8975 68.7965 18.5967 68.7965 18.3174C68.7965 18.0668 68.664 17.7803 68.399 17.458C68.1341 17.1358 67.7366 16.7097 67.2067 16.1797C67.0491 16.0222 66.8754 15.9112 66.6857 15.8467C66.4959 15.7823 66.3115 15.75 66.1324 15.75C65.8961 15.75 65.6992 15.8002 65.5416 15.9004L64.4137 14.751C64.5068 14.5792 64.5534 14.3822 64.5534 14.1602C64.5534 13.9669 64.5158 13.7753 64.4406 13.5855C64.3654 13.3957 64.249 13.2221 64.0915 13.0645C63.5615 12.5346 63.139 12.1371 62.8239 11.8722C62.5088 11.6072 62.2116 11.4747 61.9323 11.4747C61.653 11.4747 61.3558 11.6072 61.0407 11.8722C60.7256 12.1371 60.3031 12.5346 59.7731 13.0645C59.6156 13.2221 59.4992 13.3957 59.424 13.5855C59.3488 13.7753 59.3112 13.9669 59.3112 14.1602C59.3112 14.3822 59.3542 14.5792 59.4401 14.751L58.323 15.9004C58.1582 15.8002 57.9613 15.75 57.7321 15.75C57.5531 15.75 57.3687 15.7823 57.1789 15.8467C56.9891 15.9112 56.8119 16.0222 56.6472 16.1797C56.1244 16.7097 55.7305 17.1358 55.4656 17.458C55.2006 17.7803 55.0681 18.0668 55.0681 18.3174C55.0681 18.5967 55.2006 18.8975 55.4656 19.2197C55.7305 19.542 56.1316 19.9681 56.6687 20.498C56.8477 20.6699 57.025 20.7827 57.2004 20.8364C57.3759 20.8901 57.5459 20.9241 57.7107 20.9385C57.9255 20.9385 58.1296 20.8776 58.323 20.7559L59.4831 21.9482C59.3828 22.1129 59.3327 22.3099 59.3327 22.539C59.3327 22.7181 59.3703 22.9025 59.4455 23.0923C59.5207 23.282 59.6299 23.4521 59.7731 23.6025C60.3031 24.1396 60.7292 24.5406 61.0514 24.8056C61.3737 25.0706 61.6673 25.2031 61.9323 25.2031C62.1973 25.2031 62.4909 25.0706 62.8131 24.8056C63.1354 24.5406 63.5615 24.1396 64.0915 23.6025C64.2347 23.4521 64.3421 23.282 64.4137 23.0923C64.4853 22.9025 64.5211 22.7181 64.5211 22.539C64.5211 22.3099 64.471 22.1129 64.3707 21.9482L65.5416 20.7559ZM61.9108 19.4453C61.7461 19.4453 61.551 19.4668 61.3254 19.5098C61.0998 19.5527 60.833 19.6315 60.5251 19.7461C60.7113 19.1589 60.8044 18.697 60.8044 18.3604C60.8044 17.9951 60.7113 17.5261 60.5251 16.9532C60.833 17.0606 61.0998 17.1394 61.3254 17.1895C61.551 17.2396 61.7461 17.2647 61.9108 17.2647H61.9538C62.1113 17.2647 62.3047 17.2396 62.5339 17.1895C62.763 17.1394 63.0316 17.0606 63.3395 16.9532C63.1462 17.5261 63.0495 17.9951 63.0495 18.3604C63.0495 18.697 63.1462 19.1589 63.3395 19.7461C63.0316 19.6315 62.763 19.5527 62.5339 19.5098C62.3047 19.4668 62.1113 19.4453 61.9538 19.4453H61.9108Z"/>
<path d="M56.4252 38.4H55.9916V35.0425C55.892 35.1592 55.7582 35.2783 55.5902 35.3998C55.4222 35.5213 55.2679 35.6132 55.1273 35.6754V35.1656C55.3656 35.0289 55.576 34.8619 55.7587 34.6646C55.9413 34.4673 56.0697 34.275 56.1439 34.0875H56.4252V38.4Z"/>
<path d="M57.7494 38.4V34.105H60.1254V34.6148H58.2152V35.939H59.8676V36.4488H58.2152V38.4H57.7494Z"/>
<path d="M61.9242 38.4V37.3687H60.3978V36.8824L62.0062 34.105H62.3578V36.8824H62.8353V37.3687H62.3578V38.4H61.9242ZM61.9242 36.8824V34.95L60.8226 36.8824H61.9242Z"/>
<path d="M63.0726 38.4L64.4261 34.105H64.9271L66.3685 38.4H65.8353L65.4252 37.0992H63.9545L63.5677 38.4H63.0726ZM64.0892 36.6363H65.2816L64.9154 35.4468C64.8021 35.0816 64.7191 34.7847 64.6664 34.5562C64.6215 34.8316 64.558 35.105 64.476 35.3765L64.0892 36.6363Z"/>
<path d="M66.6948 36.2803C66.6948 35.5601 66.792 35.0146 66.9863 34.6437C67.1807 34.2729 67.4673 34.0875 67.8462 34.0875C68.1821 34.0875 68.4468 34.2378 68.6401 34.5384C68.8745 34.9014 68.9917 35.4821 68.9917 36.2803C68.9917 36.9966 68.895 37.5407 68.7017 37.9125C68.5083 38.2844 68.2212 38.4703 67.8403 38.4703C67.5044 38.4703 67.2295 38.3063 67.0156 37.9785C66.8018 37.6505 66.6948 37.0845 66.6948 36.2803ZM67.1372 36.2789C67.1372 36.9761 67.2041 37.4434 67.3379 37.6807C67.4717 37.918 67.6431 38.0367 67.8521 38.0367C68.0493 38.0367 68.2144 37.9166 68.3472 37.6763C68.48 37.4361 68.5464 36.9703 68.5464 36.2789C68.5464 35.5797 68.4795 35.1119 68.3457 34.8755C68.2119 34.6392 68.0386 34.5211 67.8257 34.5211C67.6304 34.5211 67.4668 34.6412 67.335 34.8814C67.2031 35.1216 67.1372 35.5875 67.1372 36.2789Z"/>
<path fill-rule="evenodd" d="M3 19V23H7V27H9V29H13V33H17V29H21V27H23V23H13V19H7V15H9V13H13V9H17V13H21V15H23V19H17V23H27V19H3ZM5 17V25H11V31H19V25H25V17H11V11H19V17H5Z" fill="#C830FF"/>
</svg>
