<svg xmlns="http://www.w3.org/2000/svg" width="1021.469" height="812.843" viewBox="0 0 766.104 609.632" stroke-linecap="round" stroke-linejoin="round" font-family="Calibri" font-size="18">
  <path fill="white" d="M.375.375h765.354v608.882H.375z"/>
  <path fill="none" stroke="black" stroke-width="1.5" d="M42.895 14.546h28.35m-28.347.002v85.04m85.036-55.949h28.35m-28.348-29.091v85.04m85.038-85.042 28.348 28.348m-28.347-28.345v85.04m85.036-56.696 28.348-28.348m-28.344.004v85.04m85.037-85.043h28.35m-28.348.002v85.04M496.44 14.55V42.9m-28.35-28.352v85.04m85.041-85.042h28.35m-28.351.002v85.04m85.04-56.695h28.35m-28.35-28.345v85.04m85.04-56.695h28.35m-28.35-28.345v85.04M383.05 42.894l28.348-28.348m170.082.004V42.9m85.035-.005v-28.35m56.695.001h28.35m-.005 28.349v-28.35M14.548 170.452h28.35m-.002.002v85.04m56.692-56.696h28.35m-.002-28.344v85.04m56.689-56.696 28.348-28.347m.002.004v85.04m56.693-85.042 28.348 28.347m-.001-28.345v85.04m56.691-85.043h28.35m-.002.002v85.04m56.696-85.04v28.35m28.34-28.35v85.04m56.694-85.042h28.35m-.004.002v85.04m56.694-56.696h28.35m-.004-28.344v85.04m56.693-85.042h28.35m-.003.002v85.04m-368.503-85.042 28.348 28.348m141.735-28.346v28.35m85.04-28.35v28.35m85.033-.006h28.35m-28.351.002v-28.35M42.895 411.397h28.35m-28.348-85.038v85.04M14.548 567.302h28.35m-.001-85.037v85.04m85.037-184.255h28.35m-28.348-56.69v85.04m113.385-28.346L212.973 411.4m.002-85.041v85.04m113.383.001-28.348-28.348m.005-56.693v85.04m113.382.001-28.348-28.348m.005-56.692v85.04m113.382 0v-28.35m-28.346-56.69v85.04m85.041-.003h28.35M553.13 326.36v85.04m85.04-28.35h28.35m-28.35-56.69v85.04m85.04-28.35h28.35m-28.35-56.69v85.04m-340.158-.003h28.35m170.073.002v-28.35m85.045.003v28.35m85.04-28.35v28.35m-28.35-.005h28.35M99.588 538.956h28.35m-.002-56.69v85.04m56.693-28.35 28.348 28.348m-.002-85.039v85.04m56.691-.003 28.348-28.347m.001-56.69v85.04m56.691-.003h28.35m-.001-85.037v85.04m56.689-.001v-28.35m28.346-56.688v85.04m56.694-.004h28.35m-.004-85.036v85.04m56.694-28.35h28.35m-.004-56.69v85.04m56.693-.004h28.35m-.003-85.036v85.04m-368.506-.004 28.348-28.348m141.738.004v28.35m85.04-28.35v28.35m85.033-28.352h28.35m-28.343.002v28.35"/>
  <g fill="black">
    <text x="38.328" y="133.332">1</text>
    <text x="123.368" y="133.332">2</text>
    <text x="208.407" y="133.332">3</text>
    <text x="293.446" y="133.332">4</text>
    <text x="378.486" y="133.332">5</text>
    <text x="463.525" y="133.332">6</text>
    <text x="548.564" y="133.332">7</text>
    <text x="633.604" y="133.332">8</text>
    <text x="718.643" y="133.332">9</text>
    <text x="33.768" y="289.238">10</text>
    <text x="118.808" y="289.238">20</text>
    <text x="203.847" y="289.238">30</text>
    <text x="288.886" y="289.238">40</text>
    <text x="373.926" y="289.238">50</text>
    <text x="458.965" y="289.238">60</text>
    <text x="544.004" y="289.238">70</text>
    <text x="629.044" y="289.238">80</text>
    <text x="714.083" y="289.238">90</text>
    <text x="29.208" y="445.143">100</text>
    <text x="24.648" y="601.049">1000</text>
    <text x="114.248" y="445.143">200</text>
    <text x="199.287" y="445.143">300</text>
    <text x="284.326" y="445.143">400</text>
    <text x="369.366" y="445.143">500</text>
    <text x="454.405" y="445.143">600</text>
    <text x="539.444" y="445.143">700</text>
    <text x="624.484" y="445.143">800</text>
    <text x="709.523" y="445.143">900</text>
    <text x="109.688" y="601.049">2000</text>
    <text x="194.727" y="601.049">3000</text>
    <text x="279.766" y="601.049">4000</text>
    <text x="364.806" y="601.049">5000</text>
    <text x="449.845" y="601.049">6000</text>
    <text x="534.884" y="601.049">7000</text>
    <text x="619.924" y="601.049">8000</text>
    <text x="704.963" y="601.049">9000</text>
  </g>
</svg>
